<?xml version='1.0' encoding='UTF-8' ?>
<!DOCTYPE svg PUBLIC "-//W3C//DTD SVG 1.1//EN" "http://www.w3.org/Graphics/SVG/1.1/DTD/svg11.dtd" [ <!ATTLIST svg
    xmlns:dsy CDATA #FIXED "http://www.3ds.com/print" dsy:text-version CDATA #IMPLIED>

<!ATTLIST text xmlns:dsy CDATA #FIXED "http://www.3ds.com/print" dsy:text-version CDATA #IMPLIED>
    ]>
    <svg style="background : rgb(255,255,255)" width="1189" xmlns="http://www.w3.org/2000/svg" height="841"
        version="1.1" viewBox="0 0 1189 841" xmlns:dsy="http://www.3ds.com/print"
        xmlns:xlink="http://www.w3.org/1999/xlink" dsy:text-version="21000">

        <g fill="none" stroke="rgb(0, 0, 0)" stroke-width="0" stroke-linecap="butt" stroke-linejoin="miter">
            <path
                d="M 350.009 221.906 L 349.253 221.852 L 349.126 221.843 L 347.054 210.633 L 347.102 209.937 L 350.858 210.208 L 350.804 210.923 L 350.009 221.906 L 350.009 221.906 z"
                fill="rgb(0, 128, 0)" stroke="none" fill-rule="evenodd" />
            <path
                d="M 347.054 210.633 L 346.274 221.648 L 346.512 221.666 L 346.75 221.683 L 346.877 221.691 L 349.126 221.843 L 347.054 210.633 L 347.054 210.633 z"
                fill="rgb(0, 128, 0)" stroke="none" fill-rule="evenodd" />
            <path
                d="M 1017.39 258.27 L 1021.23 258.546 L 1020.42 270.002 L 1016.56 269.726 L 1017.39 258.27 L 1017.39 258.27 z"
                fill="rgb(0, 128, 0)" stroke="none" fill-rule="evenodd" />
            <path
                d="M 836.462 245.224 L 840.303 245.5 L 839.489 257.006 L 835.629 256.729 L 836.462 245.224 L 836.462 245.224 z"
                fill="rgb(0, 128, 0)" stroke="none" fill-rule="evenodd" />
            <path
                d="M 627.816 230.179 L 623.968 229.901 L 623.13 241.472 L 626.996 241.749 L 627.816 230.179 L 627.816 230.179 z"
                fill="rgb(0, 128, 0)" stroke="none" fill-rule="evenodd" />
            <path
                d="M 840.183 519.841 L 840.407 531.595 L 840.534 531.586 L 840.772 531.569 L 841.01 531.552 L 840.23 520.537 L 840.183 519.841 L 840.183 519.841 z"
                fill="rgb(0, 128, 0)" stroke="none" fill-rule="evenodd" />
            <path
                d="M 840.183 519.841 L 840.407 531.595 L 838.158 531.747 L 838.031 531.756 L 837.275 531.81 L 836.48 520.827 L 836.426 520.112 L 840.183 519.841 L 840.183 519.841 z"
                fill="rgb(0, 128, 0)" stroke="none" fill-rule="evenodd" />
        </g>
        <g fill="none" stroke="rgb(0, 0, 0)" stroke-width="0" stroke-linecap="butt" stroke-linejoin="miter">
            <path d="M 1101.76 500.979 L 1101.76 500.98 L 1101.83 501.155 L 1101.76 500.979 L 1101.76 500.979 z"
                fill="rgb(137, 201, 139)" stroke="none" fill-rule="evenodd" />
        </g>
        <g fill="none" stroke="rgb(0, 0, 0)" stroke-width="0" stroke-linecap="butt" stroke-linejoin="miter">
            <path
                d="M 171.287 568.073 L 167.446 568.35 L 168.257 579.806 L 172.117 579.53 L 171.287 568.073 L 171.287 568.073 z"
                fill="rgb(0, 128, 0)" stroke="none" fill-rule="evenodd" />
            <path
                d="M 348.928 555.264 L 345.081 555.542 L 345.896 567.046 L 349.762 566.769 L 348.928 555.264 L 348.928 555.264 z"
                fill="rgb(0, 128, 0)" stroke="none" fill-rule="evenodd" />
            <path
                d="M 556.508 540.296 L 560.355 540.018 L 561.193 551.588 L 557.328 551.865 L 556.508 540.296 L 556.508 540.296 z"
                fill="rgb(0, 128, 0)" stroke="none" fill-rule="evenodd" />
        </g>
        <g fill="none" stroke="rgb(128, 64, 0)" stroke-width="0.13" stroke-linecap="butt" stroke-linejoin="miter">
            <path d="M 1128.66 317.997 L 1132.61 318" />
        </g>
        <g fill="none" stroke="rgb(0, 128, 0)" stroke-width="0.7" stroke-linecap="butt" stroke-linejoin="miter">
            <path d="M 1135.3 266.771 L 85.4608 191.071" />
            <path d="M 347.005 210.655 L 347.059 209.934" />
            <path d="M 347.005 210.655 L 346.877 212.418" />
            <path d="M 346.877 212.418 L 346.75 214.171" />
            <path d="M 346.75 214.171 L 346.209 221.644" />
            <path
                d="M 346.209 221.644 L 343.712 221.466 L 341.216 221.287 L 338.719 221.108 L 336.222 220.93 L 333.726 220.752 L 331.228 220.573 L 328.732 220.395 L 326.235 220.217 L 323.738 220.038 L 321.241 219.86 L 318.745 219.682 L 316.248 219.503 L 313.751 219.325 L 311.254 219.147 L 308.757 218.968 L 306.26 218.79" />
            <path d="M 306.134 218.781 L 306.26 218.79" />
            <path d="M 304.676 218.671 L 306.134 218.781" />
            <path d="M 304.549 218.662 L 304.676 218.671" />
            <path
                d="M 304.549 218.662 L 299.208 218.28 L 293.867 217.899 L 288.526 217.519 L 283.185 217.137 L 277.843 216.756 L 272.502 216.375 L 267.161 215.995 L 261.82 215.614 L 256.479 215.233 L 251.138 214.853 L 245.796 214.472 L 240.456 214.091 L 235.114 213.71 L 229.773 213.33 L 224.432 212.95 L 219.091 212.569" />
            <path d="M 218.964 212.56 L 219.091 212.569" />
            <path d="M 218.298 212.51 L 218.964 212.56" />
            <path d="M 218.171 212.501 L 218.298 212.51" />
            <path
                d="M 218.171 212.501 L 216.324 212.37 L 214.476 212.238 L 212.628 212.106 L 210.781 211.975 L 208.934 211.843 L 207.086 211.712 L 205.239 211.581 L 203.391 211.449 L 201.543 211.317 L 199.696 211.186 L 197.849 211.055 L 196.001 210.923 L 194.153 210.792 L 192.306 210.66 L 190.458 210.529 L 188.611 210.397" />
            <path d="M 188.484 210.388 L 188.611 210.397" />
            <path d="M 187.026 210.279 L 188.484 210.388" />
            <path d="M 186.899 210.27 L 187.026 210.279" />
            <path d="M 162.195 208.513 L 186.899 210.27" />
            <path
                d="M 126.571 205.966 L 128.74 206.122 L 130.909 206.277 L 133.078 206.432 L 135.247 206.587 L 137.416 206.743 L 139.585 206.897 L 141.754 207.053 L 143.923 207.208 L 146.092 207.363 L 148.261 207.518 L 150.43 207.672 L 152.599 207.827 L 154.768 207.981 L 156.937 208.136 L 159.106 208.29 L 161.275 208.444" />
            <path d="M 117.912 205.344 L 126.571 205.966" />
            <path d="M 83.2573 202.796 L 117.912 205.344" />
            <path d="M 83.2573 202.796 L 83.7499 195.86" />
            <path d="M 83.7499 195.86 L 85.2212 191.895" />
            <path d="M 85.220627 191.89465 A 134.40332 134.40332 0 0 0 85.413025 191.37292" />
            <path d="M 85.5215 191.075 L 85.4135 191.373" />
            <path d="M 448.531 228.963 L 566.374 237.41" />
            <path d="M 448.405 228.954 L 448.531 228.963" />
            <path d="M 447.739 228.903 L 448.405 228.954" />
            <path d="M 447.612 228.894 L 447.739 228.903" />
            <path
                d="M 447.612 228.894 L 444.511 228.671 L 441.409 228.449 L 438.307 228.228 L 435.205 228.005 L 432.103 227.783 L 429.002 227.561 L 425.9 227.339 L 422.798 227.117 L 419.697 226.895 L 416.595 226.673 L 413.494 226.45 L 410.392 226.229 L 407.29 226.007 L 404.188 225.784 L 401.086 225.563 L 397.984 225.341" />
            <path d="M 397.858 225.331 L 397.984 225.341" />
            <path d="M 397.192 225.281 L 397.858 225.331" />
            <path d="M 397.065 225.271 L 397.192 225.281" />
            <path
                d="M 397.065 225.271 L 394.128 225.062 L 391.192 224.851 L 388.255 224.641 L 385.318 224.431 L 382.381 224.221 L 379.444 224.011 L 376.507 223.801 L 373.57 223.591 L 370.634 223.381 L 367.697 223.171 L 364.76 222.96 L 361.823 222.751 L 358.886 222.541 L 355.949 222.331 L 353.012 222.121 L 350.076 221.911" />
            <path d="M 350.855 210.905 L 350.076 221.911" />
            <path d="M 350.855 210.905 L 350.902 210.211" />
            <path d="M 758.923 251.216 L 696.712 246.747" />
            <path d="M 696.585 246.738 L 696.712 246.747" />
            <path d="M 695.919 246.693 L 696.585 246.738" />
            <path d="M 695.792 246.684 L 695.919 246.693" />
            <path d="M 654.04 243.687 L 695.792 246.684" />
            <path d="M 653.914 243.677 L 654.04 243.687" />
            <path d="M 653.247 243.633 L 653.914 243.677" />
            <path d="M 653.121 243.624 L 653.247 243.633" />
            <path d="M 615.462 240.921 L 653.121 243.624" />
            <path d="M 615.335 240.912 L 615.462 240.921" />
            <path d="M 613.877 240.814 L 615.335 240.912" />
            <path d="M 613.75 240.805 L 613.877 240.814" />
            <path d="M 586.731 238.866 L 613.75 240.805" />
            <path d="M 586.604 238.858 L 586.731 238.866" />
            <path d="M 585.938 238.813 L 586.604 238.858" />
            <path d="M 585.811 238.804 L 585.938 238.813" />
            <path d="M 570.239 237.687 L 585.811 238.804" />
            <path d="M 943.872 264.51 L 762.789 251.493" />
            <path d="M 976.762 266.874 L 947.732 264.788" />
            <path d="M 1074.75 273.894 L 976.762 266.874" />
            <path d="M 1095.07 275.348 L 1074.75 273.894" />
            <path
                d="M 1095.07 275.348 L 1097.1 275.493 L 1099.13 275.639 L 1101.16 275.784 L 1103.19 275.929 L 1105.22 276.074 L 1107.25 276.219 L 1109.27 276.364 L 1111.3 276.509 L 1113.33 276.654 L 1115.36 276.8 L 1117.39 276.944 L 1119.42 277.09 L 1121.44 277.235 L 1123.47 277.38 L 1125.5 277.525 L 1127.53 277.67" />
            <path d="M 1127.66 277.68 L 1127.53 277.67" />
            <path d="M 1130.49 277.899 L 1127.66 277.68" />\n
            <path d="M 1135.3 266.771 L 1130.49 277.899" />\N
            <path d="M 947.672 264.783 L 943.932 264.515" />\N
            <path d="M 762.723 251.489 L 758.989 251.22" />\N
            <path d="M 566.439 237.415 L 570.174 237.682" />
            <path d="M 346.274 221.648 L 347.054 210.633" />
            <path d="M 347.054 210.633 L 347.102 209.937" />
            <path d="M 350.804 210.923 L 350.858 210.208" />
            <path d="M 350.009 221.906 L 350.804 210.923" />
            <path d="M 349.253 221.852 L 350.009 221.906" />
            <path d="M 349.126 221.843 L 349.253 221.852" />
            <path d="M 346.877 221.691 L 349.126 221.843" />
            <path d="M 346.75 221.683 L 346.877 221.691" />
            <path
                d="M 346.75 221.683 L 346.721 221.681 L 346.691 221.678 L 346.661 221.676 L 346.631 221.674 L 346.602 221.672 L 346.572 221.67 L 346.542 221.667 L 346.512 221.666 L 346.482 221.663 L 346.453 221.661 L 346.423 221.659 L 346.393 221.657 L 346.363 221.655 L 346.333 221.653 L 346.304 221.651 L 346.274 221.648" />
            <path d="M 1021.25 258.31 L 1020.4 270.229" />
            <path d="M 1017.41 257.954 L 1016.54 269.989" />
            <path d="M 840.332 245.087 L 839.489 257.006" />
            <path d="M 836.497 244.731 L 835.626 256.767" />
            <path d="M 627.844 229.782 L 626.996 241.76" />
            <path d="M 623.997 229.503 L 623.13 241.483" />
            <path d="M 51.9873 576.675 L 1101.82 500.975" />
            <path d="M 840.279 520.559 L 840.225 519.838" />
            <path d="M 840.279 520.559 L 840.407 522.322" />
            <path d="M 840.407 522.322 L 840.534 524.075" />
            <path d="M 840.534 524.075 L 841.075 531.547" />
            <path
                d="M 881.024 528.694 L 878.527 528.872 L 876.03 529.051 L 873.533 529.229 L 871.037 529.407 L 868.539 529.585 L 866.043 529.764 L 863.546 529.942 L 861.049 530.121 L 858.553 530.299 L 856.056 530.477 L 853.559 530.656 L 851.062 530.834 L 848.565 531.012 L 846.068 531.191 L 843.572 531.37 L 841.075 531.547" />
            <path d="M 881.15 528.685 L 881.024 528.694" />
            <path d="M 882.608 528.575 L 881.15 528.685" />
            <path d="M 882.735 528.565 L 882.608 528.575" />
            <path
                d="M 968.193 522.473 L 962.852 522.854 L 957.511 523.234 L 952.17 523.614 L 946.829 523.995 L 941.488 524.375 L 936.146 524.756 L 930.805 525.137 L 925.464 525.518 L 920.123 525.898 L 914.782 526.279 L 909.441 526.66 L 904.1 527.041 L 898.758 527.422 L 893.417 527.803 L 888.076 528.184 L 882.735 528.565" />
            <path d="M 968.32 522.464 L 968.193 522.473" />
            <path d="M 968.986 522.414 L 968.32 522.464" />
            <path d="M 969.113 522.405 L 968.986 522.414" />
            <path
                d="M 998.674 520.301 L 996.826 520.433 L 994.978 520.564 L 993.131 520.696 L 991.283 520.827 L 989.435 520.958 L 987.588 521.09 L 985.741 521.221 L 983.893 521.353 L 982.045 521.484 L 980.198 521.616 L 978.351 521.747 L 976.503 521.879 L 974.656 522.01 L 972.808 522.142 L 970.96 522.273 L 969.113 522.405" />
            <path d="M 998.8 520.292 L 998.674 520.301" />
            <path d="M 1000.26 520.183 L 998.8 520.292" />
            <path d="M 1000.39 520.173 L 1000.26 520.183" />
            <path d="M 1025.09 518.417 L 1000.39 520.173" />
            <path
                d="M 1026.01 518.348 L 1028.18 518.194 L 1030.35 518.04 L 1032.52 517.885 L 1034.69 517.731 L 1036.85 517.576 L 1039.02 517.421 L 1041.19 517.267 L 1043.36 517.112 L 1045.53 516.957 L 1047.7 516.801 L 1049.87 516.646 L 1052.04 516.491 L 1054.21 516.336 L 1056.38 516.181 L 1058.54 516.025 L 1060.71 515.87" />
            <path d="M 1069.37 515.248 L 1060.71 515.87" />
            <path d="M 1104.03 512.7 L 1069.37 515.248" />
            <path d="M 1104.03 512.7 L 1103.53 505.764" />
            <path d="M 1103.53 505.764 L 1102.06 501.798" />
            <path d="M 1101.8716 501.27661 A 134.40283 134.40283 0 0 0 1102.064 501.79834" />
            <path d="M 1101.76 500.979 L 1101.87 501.277" />
            <path d="M 738.753 538.867 L 620.91 547.313" />
            <path d="M 738.879 538.857 L 738.753 538.867" />
            <path d="M 739.545 538.807 L 738.879 538.857" />
            <path d="M 739.672 538.797 L 739.545 538.807" />
            <path d="M 789.3 535.245 L 786.198 535.466 L 783.096 535.688 L 779.994 535.911 L 776.893 536.132 L 773.791 536.354 L 770.689 536.577 L 767.588 536.798 L 764.486 537.021 L 761.384 537.243 L 758.282 537.465 L 755.181 537.687 L 752.079 537.909 L 748.977 538.131 L 745.875 538.353 L 742.773 538.575 L 739.672 538.797" />
            <path d="M 789.426 535.235 L 789.3 535.245" />
            <path d="M 790.092 535.185 L 789.426 535.235" />
            <path d="M 790.219 535.175 L 790.092 535.185" />
            <path
                d="M 837.209 531.815 L 834.272 532.024 L 831.335 532.235 L 828.398 532.444 L 825.461 532.655 L 822.524 532.864 L 819.588 533.075 L 816.65 533.285 L 813.714 533.495 L 810.777 533.705 L 807.84 533.915 L 804.903 534.125 L 801.966 534.334 L 799.029 534.545 L 796.092 534.755 L 793.156 534.965 L 790.219 535.175" />
            <path d="M 836.429 520.809 L 837.209 531.815" />
            <path d="M 836.429 520.809 L 836.382 520.115" />
            <path d="M 428.361 561.12 L 490.572 556.65" />
            <path d="M 490.699 556.642 L 490.572 556.65" />
            <path d="M 491.365 556.597 L 490.699 556.642" />
            <path d="M 491.492 556.588 L 491.365 556.597" />
            <path d="M 533.244 553.59 L 491.492 556.588" />
            <path d="M 533.371 553.581 L 533.244 553.59" />
            <path d="M 534.037 553.537 L 533.371 553.581" />
            <path d="M 534.164 553.528 L 534.037 553.537" />
            <path d="M 571.822 550.825 L 534.164 553.528" />
            <path d="M 571.949 550.816 L 571.822 550.825" />
            <path d="M 573.407 550.718 L 571.949 550.816" />
            <path d="M 573.534 550.709 L 573.407 550.718" />
            <path d="M 600.553 548.77 L 573.534 550.709" />
            <path d="M 600.68 548.762 L 600.553 548.77" />
            <path d="M 601.346 548.717 L 600.68 548.762" />
            <path d="M 601.473 548.708 L 601.346 548.717" />
            <path d="M 617.045 547.59 L 601.473 548.708" />
            <path d="M 243.412 574.414 L 424.495 561.397" />
            <path d="M 210.522 576.778 L 239.553 574.691" />
            <path d="M 112.53 583.797 L 210.522 576.778" />
            <path d="M 92.2099 585.252 L 112.53 583.797" />
            <path
                d="M 59.7549 587.574 L 61.7831 587.429 L 63.8115 587.284 L 65.8398 587.139 L 67.8686 586.994 L 69.897 586.848 L 71.9253 586.704 L 73.9541 586.558 L 75.9819 586.413 L 78.0107 586.268 L 80.0391 586.123 L 82.0679 585.978 L 84.0962 585.833 L 86.1245 585.688 L 88.1528 585.542 L 90.1811 585.397 L 92.2099 585.252" />
            <path d="M 59.6226 587.583 L 59.7549 587.574" />
            <path d="M 56.7979 587.803 L 59.6226 587.583" />
            <path d="M 51.9873 576.675 L 56.7979 587.803" />
            <path d="M 239.612 574.687 L 243.353 574.418" />
            <path d="M 424.561 561.393 L 428.295 561.124" />
            <path d="M 620.845 547.318 L 617.11 547.586" />
            <path d="M 841.01 531.552 L 840.23 520.537" />
            <path d="M 840.23 520.537 L 840.183 519.841" />
            <path d="M 836.48 520.827 L 836.426 520.112" />
            <path d="M 837.275 531.81 L 836.48 520.827" />
            <path d="M 838.031 531.756 L 837.275 531.81" />
            <path d="M 838.158 531.747 L 838.031 531.756" />
            <path d="M 840.407 531.595 L 838.158 531.747" />
            <path d="M 840.534 531.586 L 840.407 531.595" />
            <path
                d="M 841.01 531.552 L 840.98 531.555 L 840.951 531.557 L 840.921 531.559 L 840.891 531.561 L 840.861 531.563 L 840.831 531.565 L 840.802 531.567 L 840.772 531.569 L 840.742 531.571 L 840.712 531.574 L 840.683 531.576 L 840.653 531.578 L 840.623 531.58 L 840.594 531.582 L 840.563 531.584 L 840.534 531.586" />
            <path d="M 1025.09 518.417 L 1026.01 518.348" />
            <path d="M 171.259 567.682 L 172.13 579.711" />
            <path d="M 167.42 567.981 L 168.28 580.125" />
            <path d="M 348.912 555.042 L 349.778 566.991" />
            <path d="M 345.066 555.346 L 345.909 567.233" />
            <path d="M 560.335 539.741 L 561.206 551.773" />
            <path d="M 556.5 540.184 L 557.339 552.024" />
        </g>
        <g fill="none" stroke="rgb(0, 0, 255)" stroke-width="0.13" stroke-linecap="butt" stroke-linejoin="miter">
            <path
                d="M 188.252 152.072 L 186.941 152.072 L 187.229 153.6 L 187.949 154.724 L 189.059 155.401 L 190.557 155.646 L 192.042 155.415 L 193.151 154.781 L 193.857 153.787 L 194.116 152.476 L 193.9 151.294 L 193.295 150.531 L 192.315 150.026 L 191.004 149.652 L 189.88 149.378 L 189.145 149.061 L 188.727 148.6 L 188.598 147.879 L 188.727 147.231 L 189.102 146.741 L 189.678 146.41 L 190.471 146.294 L 191.278 146.438 L 191.912 146.827 L 192.33 147.476 L 192.531 148.355 L 193.843 148.355 L 193.843 148.326 L 193.612 146.971 L 192.935 145.963 L 191.869 145.329 L 190.428 145.113 L 189.131 145.329 L 188.122 145.934 L 187.474 146.871 L 187.243 148.081 L 187.431 149.162 L 187.978 149.897 L 188.843 150.386 L 190.024 150.761 L 191.191 151.093 L 192.07 151.41 L 192.603 151.871 L 192.791 152.62 L 192.618 153.384 L 192.171 153.96 L 191.494 154.32 L 190.615 154.435 L 189.635 154.277 L 188.886 153.816 L 188.41 153.067 L 188.252 152.072 L 188.252 152.072 z M 197.2 155.372 L 198.655 155.372 L 199.131 152.995 L 199.967 150.776 L 201.148 148.715 L 202.69 146.784 L 202.69 145.588 L 195.831 145.588 L 195.831 146.899 L 201.307 146.899 L 199.722 148.845 L 198.526 150.876 L 197.69 153.038 L 197.2 155.372 L 197.2 155.372 z M 204.405 150.487 L 204.621 152.75 L 205.298 154.363 L 206.379 155.343 L 207.877 155.66 L 209.361 155.343 L 210.442 154.363 L 211.105 152.75 L 211.335 150.487 L 211.105 148.24 L 210.831 147.346 L 210.442 146.611 L 209.361 145.631 L 207.877 145.3 L 206.379 145.631 L 205.298 146.626 L 204.621 148.24 L 204.405 150.487 L 204.405 150.487 z M 205.788 150.487 L 205.903 148.744 L 206.263 147.49 L 206.912 146.755 L 207.877 146.496 L 208.828 146.755 L 209.477 147.49 L 209.837 148.744 L 209.952 150.487 L 209.837 152.245 L 209.477 153.499 L 208.828 154.234 L 207.877 154.479 L 206.912 154.234 L 206.263 153.499 L 205.903 152.245 L 205.788 150.487 L 205.788 150.487 z M 213.511 155.372 L 214.837 155.372 L 214.837 151.15 L 216.307 151.15 L 217.791 151.078 L 218.972 150.574 L 219.736 149.594 L 219.995 148.254 L 219.794 147.015 L 219.217 146.107 L 218.266 145.559 L 216.97 145.372 L 213.511 145.372 L 213.511 155.372 L 213.511 155.372 z M 216.609 146.597 L 217.474 146.683 L 218.108 146.957 L 218.482 147.461 L 218.612 148.254 L 218.468 149.09 L 218.079 149.594 L 217.416 149.853 L 216.508 149.925 L 214.837 149.925 L 214.837 146.597 L 216.609 146.597 L 216.609 146.597 z M 224.967 155.372 L 226.278 155.372 L 226.278 145.3 L 225.298 145.3 L 225.039 146.179 L 224.52 146.77 L 223.727 147.116 L 222.632 147.231 L 222.632 148.254 L 224.967 148.254 L 224.967 155.372 L 224.967 155.372 z"
                fill="rgb(0, 0, 255)" stroke="none" fill-rule="nonzero" />
            <path d="M 185.592 198.291 L 185.591 158.773 L 229.563 158.773" />
            <path d="M 185.074 196.359 L 185.592 198.291 L 186.109 196.359" />
        </g>
        <g fill="none" stroke="rgb(0, 0, 255)" stroke-width="0.13" stroke-linecap="butt" stroke-linejoin="miter">
            <path
                d="M 471.771 156.072 L 470.46 156.072 L 470.748 157.6 L 471.469 158.724 L 472.578 159.401 L 474.077 159.646 L 475.561 159.415 L 476.671 158.781 L 477.377 157.787 L 477.636 156.476 L 477.42 155.294 L 476.815 154.531 L 475.835 154.026 L 474.524 153.652 L 473.4 153.378 L 472.665 153.061 L 472.247 152.6 L 472.117 151.879 L 472.247 151.231 L 472.622 150.741 L 473.198 150.41 L 473.99 150.294 L 474.797 150.438 L 475.431 150.827 L 475.849 151.476 L 476.051 152.355 L 477.362 152.355 L 477.362 152.326 L 477.132 150.971 L 476.454 149.963 L 475.388 149.329 L 473.947 149.113 L 472.65 149.329 L 471.642 149.934 L 470.993 150.871 L 470.763 152.081 L 470.95 153.162 L 471.498 153.897 L 472.362 154.386 L 473.544 154.761 L 474.711 155.093 L 475.59 155.41 L 476.123 155.871 L 476.31 156.62 L 476.137 157.384 L 475.691 157.96 L 475.013 158.32 L 474.135 158.435 L 473.155 158.277 L 472.405 157.816 L 471.93 157.067 L 471.771 156.072 L 471.771 156.072 z M 480.72 159.372 L 482.175 159.372 L 482.65 156.995 L 483.486 154.776 L 484.668 152.715 L 486.209 150.784 L 486.209 149.588 L 479.351 149.588 L 479.351 150.899 L 484.826 150.899 L 483.241 152.845 L 482.045 154.876 L 481.209 157.038 L 480.72 159.372 L 480.72 159.372 z M 487.924 154.487 L 488.14 156.75 L 488.818 158.363 L 489.898 159.343 L 491.397 159.66 L 492.881 159.343 L 493.962 158.363 L 494.624 156.75 L 494.855 154.487 L 494.624 152.24 L 494.351 151.346 L 493.962 150.611 L 492.881 149.631 L 491.397 149.3 L 489.898 149.631 L 488.818 150.626 L 488.14 152.24 L 487.924 154.487 L 487.924 154.487 z M 489.307 154.487 L 489.423 152.744 L 489.783 151.49 L 490.431 150.755 L 491.397 150.496 L 492.348 150.755 L 492.996 151.49 L 493.356 152.744 L 493.472 154.487 L 493.356 156.245 L 492.996 157.499 L 492.348 158.234 L 491.397 158.479 L 490.431 158.234 L 489.783 157.499 L 489.423 156.245 L 489.307 154.487 L 489.307 154.487 z M 497.031 159.372 L 498.356 159.372 L 498.356 155.15 L 499.826 155.15 L 501.31 155.078 L 502.492 154.574 L 503.256 153.594 L 503.515 152.254 L 503.313 151.015 L 502.737 150.107 L 501.786 149.559 L 500.489 149.372 L 497.031 149.372 L 497.031 159.372 L 497.031 159.372 z M 500.129 150.597 L 500.993 150.683 L 501.627 150.957 L 502.002 151.461 L 502.132 152.254 L 501.988 153.09 L 501.598 153.594 L 500.936 153.853 L 500.028 153.925 L 498.356 153.925 L 498.356 150.597 L 500.129 150.597 L 500.129 150.597 z M 505.23 159.372 L 512.103 159.372 L 512.103 158.133 L 506.671 158.133 L 506.973 157.456 L 507.492 156.894 L 509.091 155.871 L 509.941 155.438 L 510.892 154.819 L 511.57 154.098 L 511.959 153.248 L 512.103 152.283 L 511.858 151.072 L 511.181 150.121 L 510.143 149.516 L 508.803 149.3 L 507.42 149.545 L 506.368 150.222 L 505.691 151.303 L 505.46 152.729 L 505.46 152.931 L 506.771 152.931 L 506.771 152.816 L 506.901 151.836 L 507.29 151.116 L 507.91 150.654 L 508.731 150.496 L 509.567 150.64 L 510.186 151 L 510.59 151.562 L 510.734 152.268 L 510.633 152.931 L 510.359 153.493 L 509.898 153.983 L 509.264 154.415 L 508.414 154.876 L 507.002 155.77 L 506.008 156.721 L 505.417 157.874 L 505.23 159.329 L 505.23 159.372 L 505.23 159.372 z"
                fill="rgb(0, 0, 255)" stroke="none" fill-rule="nonzero" />
            <path d="M 469.111 218.735 L 469.111 162.773 L 513.083 162.773" />
            <path d="M 468.593 216.803 L 469.111 218.735 L 469.628 216.803" />
        </g>
        <g fill="none" stroke="rgb(0, 0, 255)" stroke-width="0.13" stroke-linecap="butt" stroke-linejoin="miter">
            <path
                d="M 716.226 156.072 L 714.915 156.072 L 715.203 157.6 L 715.923 158.724 L 717.033 159.401 L 718.531 159.646 L 720.016 159.415 L 721.125 158.781 L 721.831 157.787 L 722.091 156.476 L 721.874 155.294 L 721.269 154.531 L 720.289 154.026 L 718.978 153.652 L 717.854 153.378 L 717.119 153.061 L 716.701 152.6 L 716.572 151.879 L 716.701 151.231 L 717.076 150.741 L 717.653 150.41 L 718.445 150.294 L 719.252 150.438 L 719.886 150.827 L 720.304 151.476 L 720.506 152.355 L 721.817 152.355 L 721.817 152.326 L 721.586 150.971 L 720.909 149.963 L 719.843 149.329 L 718.402 149.113 L 717.105 149.329 L 716.096 149.934 L 715.448 150.871 L 715.217 152.081 L 715.405 153.162 L 715.952 153.897 L 716.817 154.386 L 717.998 154.761 L 719.165 155.093 L 720.044 155.41 L 720.578 155.871 L 720.765 156.62 L 720.592 157.384 L 720.145 157.96 L 719.468 158.32 L 718.589 158.435 L 717.609 158.277 L 716.86 157.816 L 716.384 157.067 L 716.226 156.072 L 716.226 156.072 z M 725.174 159.372 L 726.629 159.372 L 727.105 156.995 L 727.941 154.776 L 729.122 152.715 L 730.664 150.784 L 730.664 149.588 L 723.805 149.588 L 723.805 150.899 L 729.281 150.899 L 727.696 152.845 L 726.5 154.876 L 725.664 157.038 L 725.174 159.372 L 725.174 159.372 z M 732.379 154.487 L 732.595 156.75 L 733.272 158.363 L 734.353 159.343 L 735.851 159.66 L 737.336 159.343 L 738.416 158.363 L 739.079 156.75 L 739.31 154.487 L 739.079 152.24 L 738.805 151.346 L 738.416 150.611 L 737.336 149.631 L 735.851 149.3 L 734.353 149.631 L 733.272 150.626 L 732.595 152.24 L 732.379 154.487 L 732.379 154.487 z M 733.762 154.487 L 733.877 152.744 L 734.238 151.49 L 734.886 150.755 L 735.851 150.496 L 736.802 150.755 L 737.451 151.49 L 737.811 152.744 L 737.926 154.487 L 737.811 156.245 L 737.451 157.499 L 736.802 158.234 L 735.851 158.479 L 734.886 158.234 L 734.238 157.499 L 733.877 156.245 L 733.762 154.487 L 733.762 154.487 z M 741.485 159.372 L 742.811 159.372 L 742.811 155.15 L 744.281 155.15 L 745.765 155.078 L 746.947 154.574 L 747.71 153.594 L 747.97 152.254 L 747.768 151.015 L 747.191 150.107 L 746.24 149.559 L 744.944 149.372 L 741.485 149.372 L 741.485 159.372 L 741.485 159.372 z M 744.583 150.597 L 745.448 150.683 L 746.082 150.957 L 746.457 151.461 L 746.586 152.254 L 746.442 153.09 L 746.053 153.594 L 745.39 153.853 L 744.483 153.925 L 742.811 153.925 L 742.811 150.597 L 744.583 150.597 L 744.583 150.597 z M 749.569 156.231 L 749.569 156.332 L 749.8 157.715 L 750.477 158.753 L 751.543 159.415 L 752.955 159.66 L 754.454 159.415 L 755.578 158.781 L 756.298 157.773 L 756.557 156.476 L 756.442 155.626 L 756.125 154.934 L 755.607 154.401 L 754.915 154.012 L 755.851 153.234 L 756.183 151.995 L 755.967 150.871 L 755.347 150.021 L 754.339 149.487 L 752.955 149.3 L 751.658 149.531 L 750.664 150.165 L 750.016 151.173 L 749.8 152.513 L 749.8 152.614 L 751.082 152.614 L 751.197 151.692 L 751.572 151.029 L 752.177 150.626 L 753.027 150.482 L 753.777 150.597 L 754.324 150.899 L 754.656 151.389 L 754.785 152.052 L 754.656 152.758 L 754.31 153.234 L 753.704 153.522 L 752.883 153.608 L 752.321 153.594 L 752.321 154.732 L 753.027 154.703 L 753.935 154.833 L 754.612 155.179 L 755.016 155.741 L 755.16 156.476 L 755.001 157.312 L 754.583 157.931 L 753.921 158.32 L 753.042 158.45 L 752.134 158.306 L 751.471 157.874 L 751.053 157.182 L 750.895 156.231 L 749.569 156.231 L 749.569 156.231 z"
                fill="rgb(0, 0, 255)" stroke="none" fill-rule="nonzero" />
            <path d="M 713.565 236.362 L 713.565 162.773 L 757.537 162.773" />
            <path d="M 713.048 234.43 L 713.565 236.362 L 714.083 234.43" />
        </g>
        <g fill="none" stroke="rgb(0, 0, 255)" stroke-width="0.13" stroke-linecap="butt" stroke-linejoin="miter">
            <path
                d="M 918.197 164.072 L 916.886 164.072 L 917.174 165.6 L 917.895 166.724 L 919.004 167.401 L 920.503 167.646 L 921.987 167.415 L 923.097 166.781 L 923.803 165.787 L 924.062 164.476 L 923.846 163.294 L 923.241 162.531 L 922.261 162.026 L 920.95 161.652 L 919.826 161.378 L 919.091 161.061 L 918.673 160.6 L 918.543 159.879 L 918.673 159.231 L 919.048 158.741 L 919.624 158.409 L 920.416 158.294 L 921.223 158.438 L 921.857 158.827 L 922.275 159.476 L 922.477 160.355 L 923.788 160.355 L 923.788 160.326 L 923.558 158.971 L 922.88 157.963 L 921.814 157.329 L 920.373 157.113 L 919.076 157.329 L 918.068 157.934 L 917.419 158.871 L 917.189 160.081 L 917.376 161.162 L 917.924 161.897 L 918.788 162.386 L 919.97 162.761 L 921.137 163.092 L 922.016 163.409 L 922.549 163.871 L 922.736 164.62 L 922.563 165.384 L 922.117 165.96 L 921.439 166.32 L 920.56 166.435 L 919.581 166.277 L 918.831 165.816 L 918.356 165.067 L 918.197 164.072 L 918.197 164.072 z M 927.146 167.372 L 928.601 167.372 L 929.076 164.995 L 929.912 162.776 L 931.094 160.715 L 932.636 158.784 L 932.636 157.588 L 925.777 157.588 L 925.777 158.899 L 931.252 158.899 L 929.667 160.845 L 928.471 162.876 L 927.635 165.038 L 927.146 167.372 L 927.146 167.372 z M 934.35 162.487 L 934.566 164.75 L 935.244 166.363 L 936.324 167.343 L 937.823 167.66 L 939.307 167.343 L 940.388 166.363 L 941.051 164.75 L 941.281 162.487 L 941.051 160.239 L 940.777 159.346 L 940.388 158.611 L 939.307 157.631 L 937.823 157.3 L 936.324 157.631 L 935.244 158.626 L 934.566 160.239 L 934.35 162.487 L 934.35 162.487 z M 935.734 162.487 L 935.849 160.744 L 936.209 159.49 L 936.857 158.755 L 937.823 158.496 L 938.774 158.755 L 939.422 159.49 L 939.783 160.744 L 939.898 162.487 L 939.783 164.245 L 939.422 165.499 L 938.774 166.234 L 937.823 166.479 L 936.857 166.234 L 936.209 165.499 L 935.849 164.245 L 935.734 162.487 L 935.734 162.487 z M 943.457 167.372 L 944.783 167.372 L 944.783 163.15 L 946.252 163.15 L 947.737 163.078 L 948.918 162.574 L 949.682 161.594 L 949.941 160.254 L 949.739 159.015 L 949.163 158.107 L 948.212 157.559 L 946.915 157.372 L 943.457 157.372 L 943.457 167.372 L 943.457 167.372 z M 946.555 158.597 L 947.42 158.683 L 948.054 158.957 L 948.428 159.461 L 948.558 160.254 L 948.414 161.09 L 948.025 161.594 L 947.362 161.853 L 946.454 161.925 L 944.783 161.925 L 944.783 158.597 L 946.555 158.597 L 946.555 158.597 z M 955.964 167.372 L 957.261 167.372 L 957.261 164.894 L 958.688 164.894 L 958.688 163.741 L 957.261 163.741 L 957.261 157.588 L 955.95 157.588 L 951.569 163.626 L 951.569 164.894 L 955.964 164.894 L 955.964 167.372 L 955.964 167.372 z M 952.78 163.741 L 955.964 159.26 L 955.964 163.741 L 952.78 163.741 L 952.78 163.741 z"
                fill="rgb(0, 0, 255)" stroke="none" fill-rule="nonzero" />
            <path d="M 915.537 250.925 L 915.537 170.773 L 959.509 170.773" />
            <path d="M 915.019 248.993 L 915.537 250.925 L 916.055 248.993" />
        </g>
        <g fill="none" stroke="rgb(0, 0, 255)" stroke-width="0.13" stroke-linecap="butt" stroke-linejoin="miter">
            <path
                d="M 1077.45 166.072 L 1076.14 166.072 L 1076.42 167.6 L 1077.14 168.724 L 1078.25 169.401 L 1079.75 169.646 L 1081.24 169.415 L 1082.35 168.781 L 1083.05 167.787 L 1083.31 166.476 L 1083.09 165.294 L 1082.49 164.531 L 1081.51 164.026 L 1080.2 163.652 L 1079.07 163.378 L 1078.34 163.061 L 1077.92 162.6 L 1077.79 161.879 L 1077.92 161.231 L 1078.3 160.741 L 1078.87 160.41 L 1079.67 160.294 L 1080.47 160.438 L 1081.11 160.827 L 1081.52 161.476 L 1081.73 162.355 L 1083.04 162.355 L 1083.04 162.326 L 1082.81 160.971 L 1082.13 159.963 L 1081.06 159.329 L 1079.62 159.113 L 1078.33 159.329 L 1077.32 159.934 L 1076.67 160.871 L 1076.44 162.081 L 1076.62 163.162 L 1077.17 163.897 L 1078.04 164.386 L 1079.22 164.761 L 1080.39 165.093 L 1081.26 165.41 L 1081.8 165.871 L 1081.99 166.62 L 1081.81 167.384 L 1081.37 167.96 L 1080.69 168.32 L 1079.81 168.435 L 1078.83 168.277 L 1078.08 167.816 L 1077.6 167.067 L 1077.45 166.072 L 1077.45 166.072 z M 1086.39 169.372 L 1087.85 169.372 L 1088.33 166.995 L 1089.16 164.776 L 1090.34 162.715 L 1091.88 160.784 L 1091.88 159.588 L 1085.03 159.588 L 1085.03 160.899 L 1090.5 160.899 L 1088.92 162.845 L 1087.72 164.876 L 1086.88 167.038 L 1086.39 169.372 L 1086.39 169.372 z M 1093.6 164.487 L 1093.82 166.75 L 1094.49 168.363 L 1095.57 169.343 L 1097.07 169.66 L 1098.56 169.343 L 1099.64 168.363 L 1100.3 166.75 L 1100.53 164.487 L 1100.3 162.24 L 1100.03 161.346 L 1099.64 160.611 L 1098.56 159.631 L 1097.07 159.3 L 1095.57 159.631 L 1094.49 160.626 L 1093.82 162.24 L 1093.6 164.487 L 1093.6 164.487 z M 1094.98 164.487 L 1095.1 162.744 L 1095.46 161.49 L 1096.11 160.755 L 1097.07 160.496 L 1098.02 160.755 L 1098.67 161.49 L 1099.03 162.744 L 1099.15 164.487 L 1099.03 166.245 L 1098.67 167.499 L 1098.02 168.234 L 1097.07 168.479 L 1096.11 168.234 L 1095.46 167.499 L 1095.1 166.245 L 1094.98 164.487 L 1094.98 164.487 z M 1102.71 169.372 L 1104.03 169.372 L 1104.03 165.15 L 1105.5 165.15 L 1106.98 165.078 L 1108.17 164.574 L 1108.93 163.594 L 1109.19 162.254 L 1108.99 161.015 L 1108.41 160.107 L 1107.46 159.559 L 1106.16 159.372 L 1102.71 159.372 L 1102.71 169.372 L 1102.71 169.372 z M 1105.8 160.597 L 1106.67 160.683 L 1107.3 160.957 L 1107.68 161.461 L 1107.81 162.254 L 1107.66 163.09 L 1107.27 163.594 L 1106.61 163.853 L 1105.7 163.925 L 1104.03 163.925 L 1104.03 160.597 L 1105.8 160.597 L 1105.8 160.597 z M 1110.85 166.764 L 1111.16 167.946 L 1111.87 168.868 L 1112.91 169.444 L 1114.23 169.66 L 1115.69 169.401 L 1116.83 168.695 L 1117.55 167.571 L 1117.82 166.13 L 1117.58 164.79 L 1116.88 163.738 L 1115.8 163.061 L 1114.41 162.816 L 1113.33 162.989 L 1112.49 163.464 L 1112.89 160.77 L 1117.27 160.77 L 1117.27 159.588 L 1111.93 159.588 L 1111.13 164.891 L 1112.29 164.891 L 1113.12 164.214 L 1114.19 163.969 L 1115.11 164.127 L 1115.82 164.588 L 1116.26 165.294 L 1116.42 166.202 L 1116.26 167.11 L 1115.8 167.816 L 1115.1 168.263 L 1114.19 168.421 L 1113.43 168.32 L 1112.84 167.989 L 1112.4 167.47 L 1112.19 166.764 L 1110.85 166.764 L 1110.85 166.764 z"
                fill="rgb(0, 0, 255)" stroke="none" fill-rule="nonzero" />
            <path d="M 1074.79 262.408 L 1074.79 172.773 L 1118.76 172.773" />
            <path d="M 1074.27 260.476 L 1074.79 262.408 L 1075.3 260.476" />
        </g>
        <g fill="none" stroke="rgb(0, 0, 255)" stroke-width="0.13" stroke-linecap="butt" stroke-linejoin="miter">
            <path
                d="M 1130.61 316.499 L 1130.52 316.501 L 1130.43 316.511 L 1130.33 316.525 L 1130.24 316.546 L 1130.15 316.572 L 1130.06 316.604 L 1129.98 316.641 L 1129.89 316.684 L 1129.81 316.731 L 1129.73 316.785 L 1129.66 316.842 L 1129.59 316.905 L 1129.52 316.971 L 1129.46 317.042 L 1129.4 317.116 L 1129.35 317.194 L 1129.3 317.275 L 1129.26 317.359 L 1129.22 317.446 L 1129.19 317.534 L 1129.16 317.625 L 1129.14 317.717 L 1129.13 317.81 L 1129.12 317.903 L 1129.11 317.998 L 1129.12 318.092 L 1129.12 318.186 L 1129.14 318.279 L 1129.16 318.371 L 1129.19 318.461 L 1129.22 318.55 L 1129.26 318.636 L 1129.3 318.72 L 1129.35 318.802 L 1129.4 318.88 L 1129.46 318.954 L 1129.52 319.025 L 1129.59 319.091 L 1129.66 319.154 L 1129.73 319.212 L 1129.81 319.265 L 1129.89 319.313 L 1129.97 319.355 L 1130.06 319.393 L 1130.15 319.425 L 1130.24 319.452 L 1130.33 319.472 L 1130.42 319.487 L 1130.52 319.496 L 1130.61 319.499 L 1130.71 319.496 L 1130.8 319.487 L 1130.89 319.473 L 1130.98 319.452 L 1131.08 319.426 L 1131.16 319.394 L 1131.25 319.356 L 1131.33 319.313 L 1131.42 319.266 L 1131.49 319.213 L 1131.57 319.155 L 1131.64 319.093 L 1131.71 319.026 L 1131.77 318.956 L 1131.83 318.881 L 1131.88 318.804 L 1131.93 318.722 L 1131.97 318.639 L 1132.01 318.552 L 1132.04 318.463 L 1132.07 318.373 L 1132.09 318.281 L 1132.1 318.188 L 1132.11 318.094 L 1132.11 318 L 1132.11 317.906 L 1132.1 317.812 L 1132.09 317.719 L 1132.07 317.627 L 1132.04 317.536 L 1132.01 317.448 L 1131.97 317.361 L 1131.93 317.277 L 1131.88 317.196 L 1131.83 317.118 L 1131.77 317.043 L 1131.71 316.973 L 1131.64 316.906 L 1131.57 316.844 L 1131.5 316.786 L 1131.42 316.733 L 1131.34 316.685 L 1131.25 316.642 L 1131.17 316.604 L 1131.08 316.573 L 1130.99 316.546 L 1130.9 316.526 L 1130.8 316.511 L 1130.71 316.502 L 1130.61 316.499 L 1130.61 316.499 z"
                fill="rgb(128, 64, 0)" stroke="none" fill-rule="evenodd" />
            <path
                d="M 1130.64 279.399 L 1130.74 279.397 L 1130.83 279.388 L 1130.92 279.374 L 1131.01 279.353 L 1131.11 279.327 L 1131.19 279.294 L 1131.28 279.257 L 1131.36 279.214 L 1131.45 279.167 L 1131.52 279.114 L 1131.6 279.056 L 1131.67 278.994 L 1131.74 278.927 L 1131.8 278.856 L 1131.86 278.782 L 1131.91 278.704 L 1131.96 278.623 L 1132 278.54 L 1132.04 278.453 L 1132.07 278.364 L 1132.1 278.274 L 1132.12 278.182 L 1132.13 278.089 L 1132.14 277.995 L 1132.14 277.901 L 1132.14 277.807 L 1132.13 277.713 L 1132.12 277.62 L 1132.1 277.528 L 1132.07 277.437 L 1132.04 277.349 L 1132 277.262 L 1131.96 277.178 L 1131.91 277.097 L 1131.86 277.019 L 1131.8 276.944 L 1131.74 276.874 L 1131.67 276.807 L 1131.6 276.745 L 1131.53 276.687 L 1131.45 276.634 L 1131.37 276.585 L 1131.28 276.543 L 1131.2 276.505 L 1131.11 276.474 L 1131.02 276.447 L 1130.92 276.427 L 1130.83 276.412 L 1130.74 276.403 L 1130.64 276.399 L 1130.55 276.402 L 1130.46 276.411 L 1130.36 276.426 L 1130.27 276.446 L 1130.18 276.473 L 1130.09 276.505 L 1130.01 276.542 L 1129.92 276.585 L 1129.84 276.632 L 1129.76 276.686 L 1129.69 276.743 L 1129.62 276.806 L 1129.55 276.872 L 1129.49 276.942 L 1129.43 277.017 L 1129.38 277.095 L 1129.33 277.176 L 1129.29 277.26 L 1129.25 277.347 L 1129.22 277.435 L 1129.19 277.525 L 1129.17 277.618 L 1129.15 277.71 L 1129.15 277.804 L 1129.14 277.898 L 1129.15 277.993 L 1129.15 278.086 L 1129.17 278.18 L 1129.19 278.271 L 1129.22 278.362 L 1129.25 278.451 L 1129.28 278.537 L 1129.33 278.621 L 1129.38 278.702 L 1129.43 278.78 L 1129.49 278.855 L 1129.55 278.926 L 1129.61 278.992 L 1129.69 279.055 L 1129.76 279.112 L 1129.84 279.166 L 1129.92 279.214 L 1130 279.256 L 1130.09 279.294 L 1130.18 279.326 L 1130.27 279.353 L 1130.36 279.373 L 1130.45 279.388 L 1130.55 279.396 L 1130.64 279.399 L 1130.64 279.399 z"
                fill="rgb(128, 64, 0)" stroke="none" fill-rule="evenodd" />
        </g>
        <g fill="none" stroke="rgb(128, 64, 0)" stroke-width="0.13" stroke-linecap="butt" stroke-linejoin="miter">
            <path
                d="M 1128.57 381.185 L 1128.57 374.312 L 1127.33 374.311 L 1127.33 379.743 L 1126.65 379.44 L 1126.09 378.921 L 1125.07 377.321 L 1124.64 376.47 L 1124.02 375.519 L 1123.3 374.841 L 1122.45 374.452 L 1121.48 374.307 L 1120.27 374.551 L 1119.32 375.227 L 1118.71 376.264 L 1118.5 377.604 L 1118.74 378.988 L 1119.42 380.04 L 1120.5 380.718 L 1121.92 380.95 L 1122.13 380.95 L 1122.13 379.639 L 1122.01 379.639 L 1121.03 379.508 L 1120.31 379.119 L 1119.85 378.499 L 1119.69 377.677 L 1119.84 376.842 L 1120.2 376.222 L 1120.76 375.819 L 1121.47 375.676 L 1122.13 375.777 L 1122.69 376.051 L 1123.18 376.513 L 1123.61 377.147 L 1124.07 377.997 L 1124.97 379.41 L 1125.92 380.405 L 1127.07 380.997 L 1128.52 381.185 L 1128.57 381.185 L 1128.57 381.185 z M 1123.69 370.464 L 1125.95 370.25 L 1127.57 369.574 L 1128.55 368.494 L 1128.87 366.995 L 1128.55 365.511 L 1127.57 364.43 L 1125.96 363.766 L 1123.7 363.533 L 1121.45 363.762 L 1120.55 364.035 L 1119.82 364.424 L 1118.84 365.504 L 1118.51 366.988 L 1118.84 368.487 L 1119.83 369.568 L 1121.44 370.246 L 1123.69 370.464 L 1123.69 370.464 z M 1123.69 369.081 L 1121.95 368.964 L 1120.69 368.603 L 1119.96 367.954 L 1119.7 366.989 L 1119.96 366.038 L 1120.7 365.39 L 1121.95 365.031 L 1123.69 364.917 L 1125.45 365.033 L 1126.71 365.394 L 1127.44 366.043 L 1127.68 366.994 L 1127.44 367.96 L 1126.7 368.608 L 1125.45 368.967 L 1123.69 369.081 L 1123.69 369.081 z M 1128.58 356.58 L 1128.59 355.269 L 1118.51 355.262 L 1118.51 356.242 L 1119.39 356.502 L 1119.98 357.021 L 1120.33 357.813 L 1120.44 358.909 L 1121.46 358.909 L 1121.47 356.575 L 1128.58 356.58 L 1128.58 356.58 z"
                fill="rgb(128, 64, 0)" stroke="none" fill-rule="nonzero" />
            <path d="M 1130.57 382.008 L 1130.61 319.499" />
            <path d="M 1130.61 316.499 L 1130.64 279.399" />
            <circle r="1.5" cx="1130.613" cy="317.99902" />
            <circle r="1.5" cx="1130.6428" cy="277.89941" />
        </g>
        <g fill="none" stroke="rgb(0, 0, 255)" stroke-width="0.13" stroke-linecap="butt" stroke-linejoin="miter">
            <path
                d="M 1003.15 465.977 L 1001.84 465.977 L 1002.13 467.504 L 1002.85 468.628 L 1003.96 469.305 L 1005.46 469.55 L 1006.94 469.32 L 1008.05 468.686 L 1008.76 467.691 L 1009.02 466.38 L 1008.8 465.199 L 1008.2 464.435 L 1007.22 463.931 L 1005.9 463.556 L 1004.78 463.282 L 1004.05 462.965 L 1003.63 462.504 L 1003.5 461.784 L 1003.63 461.135 L 1004 460.645 L 1004.58 460.314 L 1005.37 460.199 L 1006.18 460.343 L 1006.81 460.732 L 1007.23 461.38 L 1007.43 462.259 L 1008.74 462.259 L 1008.74 462.23 L 1008.51 460.876 L 1007.84 459.867 L 1006.77 459.233 L 1005.33 459.017 L 1004.03 459.233 L 1003.02 459.838 L 1002.37 460.775 L 1002.14 461.985 L 1002.33 463.066 L 1002.88 463.801 L 1003.74 464.291 L 1004.93 464.665 L 1006.09 464.997 L 1006.97 465.314 L 1007.5 465.775 L 1007.69 466.524 L 1007.52 467.288 L 1007.07 467.864 L 1006.39 468.225 L 1005.52 468.34 L 1004.54 468.181 L 1003.79 467.72 L 1003.31 466.971 L 1003.15 465.977 L 1003.15 465.977 z M 1012.1 469.276 L 1013.56 469.276 L 1014.03 466.899 L 1014.87 464.68 L 1016.05 462.619 L 1017.59 460.689 L 1017.59 459.493 L 1010.73 459.493 L 1010.73 460.804 L 1016.21 460.804 L 1014.62 462.749 L 1013.43 464.781 L 1012.59 466.942 L 1012.1 469.276 L 1012.1 469.276 z M 1019.31 464.392 L 1019.52 466.654 L 1020.2 468.268 L 1021.28 469.248 L 1022.78 469.565 L 1024.26 469.248 L 1025.34 468.268 L 1026.01 466.654 L 1026.24 464.392 L 1026.01 462.144 L 1025.73 461.25 L 1025.34 460.516 L 1024.26 459.536 L 1022.78 459.204 L 1021.28 459.536 L 1020.2 460.53 L 1019.52 462.144 L 1019.31 464.392 L 1019.31 464.392 z M 1020.69 464.392 L 1020.8 462.648 L 1021.16 461.395 L 1021.81 460.66 L 1022.78 460.4 L 1023.73 460.66 L 1024.38 461.395 L 1024.74 462.648 L 1024.85 464.392 L 1024.74 466.15 L 1024.38 467.403 L 1023.73 468.138 L 1022.78 468.383 L 1021.81 468.138 L 1021.16 467.403 L 1020.8 466.15 L 1020.69 464.392 L 1020.69 464.392 z M 1028.41 469.276 L 1029.74 469.276 L 1029.74 465.055 L 1031.21 465.055 L 1032.69 464.982 L 1033.87 464.478 L 1034.64 463.498 L 1034.9 462.158 L 1034.69 460.919 L 1034.12 460.011 L 1033.17 459.464 L 1031.87 459.276 L 1028.41 459.276 L 1028.41 469.276 L 1028.41 469.276 z M 1031.51 460.501 L 1032.37 460.588 L 1033.01 460.861 L 1033.38 461.366 L 1033.51 462.158 L 1033.37 462.994 L 1032.98 463.498 L 1032.32 463.758 L 1031.41 463.83 L 1029.74 463.83 L 1029.74 460.501 L 1031.51 460.501 L 1031.51 460.501 z M 1039.87 469.276 L 1041.18 469.276 L 1041.18 459.204 L 1040.2 459.204 L 1039.94 460.083 L 1039.42 460.674 L 1038.63 461.02 L 1037.53 461.135 L 1037.53 462.158 L 1039.87 462.158 L 1039.87 469.276 L 1039.87 469.276 z"
                fill="rgb(0, 0, 255)" stroke="none" fill-rule="nonzero" />
            <path d="M 1001.69 508.195 L 1000.49 472.677 L 1044.46 472.677" />
            <path d="M 1001.11 506.282 L 1001.69 508.195 L 1002.14 506.247" />
        </g>
        <g fill="none" stroke="rgb(0, 0, 255)" stroke-width="0.13" stroke-linecap="butt" stroke-linejoin="miter">
            <path
                d="M 719.634 465.977 L 718.322 465.977 L 718.611 467.504 L 719.331 468.628 L 720.441 469.305 L 721.939 469.55 L 723.423 469.32 L 724.533 468.686 L 725.239 467.691 L 725.498 466.38 L 725.282 465.199 L 724.677 464.435 L 723.697 463.931 L 722.386 463.556 L 721.262 463.282 L 720.527 462.965 L 720.109 462.504 L 719.98 461.784 L 720.109 461.135 L 720.484 460.645 L 721.06 460.314 L 721.853 460.199 L 722.66 460.343 L 723.294 460.732 L 723.711 461.38 L 723.913 462.259 L 725.224 462.259 L 725.224 462.23 L 724.994 460.876 L 724.317 459.867 L 723.25 459.233 L 721.81 459.017 L 720.513 459.233 L 719.504 459.838 L 718.856 460.775 L 718.625 461.985 L 718.812 463.066 L 719.36 463.801 L 720.224 464.291 L 721.406 464.665 L 722.573 464.997 L 723.452 465.314 L 723.985 465.775 L 724.173 466.524 L 724 467.288 L 723.553 467.864 L 722.876 468.225 L 721.997 468.34 L 721.017 468.181 L 720.268 467.72 L 719.792 466.971 L 719.634 465.977 L 719.634 465.977 z M 728.582 469.276 L 730.037 469.276 L 730.513 466.899 L 731.348 464.68 L 732.53 462.619 L 734.072 460.689 L 734.072 459.493 L 727.213 459.493 L 727.213 460.804 L 732.688 460.804 L 731.103 462.749 L 729.908 464.781 L 729.072 466.942 L 728.582 469.276 L 728.582 469.276 z M 735.786 464.392 L 736.003 466.654 L 736.68 468.268 L 737.761 469.248 L 739.259 469.565 L 740.743 469.248 L 741.824 468.268 L 742.487 466.654 L 742.717 464.392 L 742.487 462.144 L 742.213 461.25 L 741.824 460.516 L 740.743 459.536 L 739.259 459.204 L 737.761 459.536 L 736.68 460.53 L 736.003 462.144 L 735.786 464.392 L 735.786 464.392 z M 737.17 464.392 L 737.285 462.648 L 737.645 461.395 L 738.294 460.66 L 739.259 460.4 L 740.21 460.66 L 740.859 461.395 L 741.219 462.648 L 741.334 464.392 L 741.219 466.15 L 740.859 467.403 L 740.21 468.138 L 739.259 468.383 L 738.294 468.138 L 737.645 467.403 L 737.285 466.15 L 737.17 464.392 L 737.17 464.392 z M 744.893 469.276 L 746.219 469.276 L 746.219 465.055 L 747.689 465.055 L 749.173 464.982 L 750.354 464.478 L 751.118 463.498 L 751.377 462.158 L 751.176 460.919 L 750.599 460.011 L 749.648 459.464 L 748.351 459.276 L 744.893 459.276 L 744.893 469.276 L 744.893 469.276 z M 747.991 460.501 L 748.856 460.588 L 749.49 460.861 L 749.864 461.366 L 749.994 462.158 L 749.85 462.994 L 749.461 463.498 L 748.798 463.758 L 747.89 463.83 L 746.219 463.83 L 746.219 460.501 L 747.991 460.501 L 747.991 460.501 z M 753.092 469.276 L 759.965 469.276 L 759.965 468.037 L 754.533 468.037 L 754.836 467.36 L 755.354 466.798 L 756.954 465.775 L 757.804 465.343 L 758.755 464.723 L 759.432 464.003 L 759.821 463.152 L 759.965 462.187 L 759.72 460.977 L 759.043 460.026 L 758.006 459.42 L 756.666 459.204 L 755.282 459.449 L 754.23 460.127 L 753.553 461.207 L 753.323 462.634 L 753.323 462.835 L 754.634 462.835 L 754.634 462.72 L 754.763 461.74 L 755.153 461.02 L 755.772 460.559 L 756.593 460.4 L 757.429 460.544 L 758.049 460.905 L 758.452 461.467 L 758.596 462.173 L 758.495 462.835 L 758.222 463.397 L 757.761 463.887 L 757.127 464.32 L 756.276 464.781 L 754.864 465.674 L 753.87 466.625 L 753.279 467.778 L 753.092 469.233 L 753.092 469.276 L 753.092 469.276 z"
                fill="rgb(0, 0, 255)" stroke="none" fill-rule="nonzero" />
            <path d="M 718.173 528.639 L 716.973 472.677 L 760.945 472.677" />
            <path d="M 717.614 526.719 L 718.173 528.639 L 718.649 526.697" />
        </g>
        <g fill="none" stroke="rgb(0, 0, 255)" stroke-width="0.13" stroke-linecap="butt" stroke-linejoin="miter">
            <path
                d="M 469.463 467.977 L 468.152 467.977 L 468.44 469.504 L 469.16 470.628 L 470.27 471.305 L 471.768 471.55 L 473.252 471.32 L 474.362 470.686 L 475.068 469.691 L 475.327 468.38 L 475.111 467.199 L 474.506 466.435 L 473.526 465.931 L 472.215 465.556 L 471.091 465.282 L 470.356 464.965 L 469.938 464.504 L 469.809 463.784 L 469.938 463.135 L 470.313 462.645 L 470.889 462.314 L 471.682 462.199 L 472.489 462.343 L 473.123 462.732 L 473.541 463.38 L 473.742 464.259 L 475.054 464.259 L 475.054 464.23 L 474.823 462.876 L 474.146 461.867 L 473.08 461.233 L 471.639 461.017 L 470.342 461.233 L 469.333 461.838 L 468.685 462.775 L 468.454 463.985 L 468.641 465.066 L 469.189 465.801 L 470.054 466.291 L 471.235 466.665 L 472.402 466.997 L 473.281 467.314 L 473.814 467.775 L 474.002 468.524 L 473.829 469.288 L 473.382 469.864 L 472.705 470.225 L 471.826 470.34 L 470.846 470.181 L 470.097 469.72 L 469.621 468.971 L 469.463 467.977 L 469.463 467.977 z M 478.411 471.276 L 479.866 471.276 L 480.342 468.899 L 481.177 466.68 L 482.359 464.619 L 483.901 462.689 L 483.901 461.493 L 477.042 461.493 L 477.042 462.804 L 482.518 462.804 L 480.933 464.749 L 479.737 466.781 L 478.901 468.942 L 478.411 471.276 L 478.411 471.276 z M 485.616 466.392 L 485.832 468.654 L 486.509 470.268 L 487.59 471.248 L 489.088 471.565 L 490.572 471.248 L 491.653 470.268 L 492.316 468.654 L 492.546 466.392 L 492.316 464.144 L 492.042 463.25 L 491.653 462.516 L 490.572 461.536 L 489.088 461.204 L 487.59 461.536 L 486.509 462.53 L 485.832 464.144 L 485.616 466.392 L 485.616 466.392 z M 486.999 466.392 L 487.114 464.648 L 487.474 463.395 L 488.123 462.66 L 489.088 462.4 L 490.039 462.66 L 490.688 463.395 L 491.048 464.648 L 491.163 466.392 L 491.048 468.15 L 490.688 469.403 L 490.039 470.138 L 489.088 470.383 L 488.123 470.138 L 487.474 469.403 L 487.114 468.15 L 486.999 466.392 L 486.999 466.392 z M 494.722 471.276 L 496.048 471.276 L 496.048 467.055 L 497.518 467.055 L 499.002 466.982 L 500.183 466.478 L 500.947 465.498 L 501.206 464.158 L 501.005 462.919 L 500.428 462.011 L 499.477 461.464 L 498.18 461.276 L 494.722 461.276 L 494.722 471.276 L 494.722 471.276 z M 497.82 462.501 L 498.685 462.588 L 499.319 462.861 L 499.693 463.366 L 499.823 464.158 L 499.679 464.994 L 499.29 465.498 L 498.627 465.758 L 497.719 465.83 L 496.048 465.83 L 496.048 462.501 L 497.82 462.501 L 497.82 462.501 z M 502.806 468.135 L 502.806 468.236 L 503.036 469.619 L 503.714 470.657 L 504.78 471.32 L 506.192 471.565 L 507.69 471.32 L 508.814 470.686 L 509.535 469.677 L 509.794 468.38 L 509.679 467.53 L 509.362 466.838 L 508.843 466.305 L 508.152 465.916 L 509.088 465.138 L 509.42 463.899 L 509.203 462.775 L 508.584 461.925 L 507.575 461.392 L 506.192 461.204 L 504.895 461.435 L 503.901 462.069 L 503.252 463.078 L 503.036 464.418 L 503.036 464.518 L 504.319 464.518 L 504.434 463.596 L 504.809 462.933 L 505.414 462.53 L 506.264 462.386 L 507.013 462.501 L 507.561 462.804 L 507.892 463.294 L 508.022 463.957 L 507.892 464.663 L 507.546 465.138 L 506.941 465.426 L 506.12 465.513 L 505.558 465.498 L 505.558 466.637 L 506.264 466.608 L 507.172 466.737 L 507.849 467.083 L 508.252 467.645 L 508.397 468.38 L 508.238 469.216 L 507.82 469.835 L 507.157 470.225 L 506.278 470.354 L 505.371 470.21 L 504.708 469.778 L 504.29 469.086 L 504.131 468.135 L 502.806 468.135 L 502.806 468.135 z"
                fill="rgb(0, 0, 255)" stroke="none" fill-rule="nonzero" />
            <path d="M 468.002 546.678 L 466.802 474.677 L 510.774 474.677" />
            <path d="M 467.453 544.755 L 468.002 546.678 L 468.488 544.738" />
        </g>
        <g fill="none" stroke="rgb(0, 0, 255)" stroke-width="0.13" stroke-linecap="butt" stroke-linejoin="miter">
            <path
                d="M 295.463 467.977 L 294.152 467.977 L 294.44 469.504 L 295.16 470.628 L 296.27 471.305 L 297.768 471.55 L 299.252 471.32 L 300.362 470.686 L 301.068 469.691 L 301.327 468.38 L 301.111 467.199 L 300.506 466.435 L 299.526 465.931 L 298.215 465.556 L 297.091 465.282 L 296.356 464.965 L 295.938 464.504 L 295.809 463.784 L 295.938 463.135 L 296.313 462.645 L 296.889 462.314 L 297.682 462.199 L 298.489 462.343 L 299.123 462.732 L 299.541 463.38 L 299.742 464.259 L 301.054 464.259 L 301.054 464.23 L 300.823 462.876 L 300.146 461.867 L 299.08 461.233 L 297.639 461.017 L 296.342 461.233 L 295.333 461.838 L 294.685 462.775 L 294.454 463.985 L 294.642 465.066 L 295.189 465.801 L 296.054 466.291 L 297.235 466.665 L 298.402 466.997 L 299.281 467.314 L 299.814 467.775 L 300.002 468.524 L 299.829 469.288 L 299.382 469.864 L 298.705 470.225 L 297.826 470.34 L 296.846 470.181 L 296.097 469.72 L 295.621 468.971 L 295.463 467.977 L 295.463 467.977 z M 304.411 471.276 L 305.866 471.276 L 306.342 468.899 L 307.178 466.68 L 308.359 464.619 L 309.901 462.689 L 309.901 461.493 L 303.042 461.493 L 303.042 462.804 L 308.518 462.804 L 306.933 464.749 L 305.737 466.781 L 304.901 468.942 L 304.411 471.276 L 304.411 471.276 z M 311.616 466.392 L 311.832 468.654 L 312.509 470.268 L 313.59 471.248 L 315.088 471.565 L 316.572 471.248 L 317.653 470.268 L 318.316 468.654 L 318.546 466.392 L 318.316 464.144 L 318.042 463.25 L 317.653 462.516 L 316.572 461.536 L 315.088 461.204 L 313.59 461.536 L 312.509 462.53 L 311.832 464.144 L 311.616 466.392 L 311.616 466.392 z M 312.999 466.392 L 313.114 464.648 L 313.474 463.395 L 314.123 462.66 L 315.088 462.4 L 316.039 462.66 L 316.688 463.395 L 317.048 464.648 L 317.163 466.392 L 317.048 468.15 L 316.688 469.403 L 316.039 470.138 L 315.088 470.383 L 314.123 470.138 L 313.474 469.403 L 313.114 468.15 L 312.999 466.392 L 312.999 466.392 z M 320.722 471.276 L 322.048 471.276 L 322.048 467.055 L 323.518 467.055 L 325.002 466.982 L 326.183 466.478 L 326.947 465.498 L 327.206 464.158 L 327.005 462.919 L 326.428 462.011 L 325.477 461.464 L 324.18 461.276 L 320.722 461.276 L 320.722 471.276 L 320.722 471.276 z M 323.82 462.501 L 324.685 462.588 L 325.319 462.861 L 325.693 463.366 L 325.823 464.158 L 325.679 464.994 L 325.29 465.498 L 324.627 465.758 L 323.719 465.83 L 322.048 465.83 L 322.048 462.501 L 323.82 462.501 L 323.82 462.501 z M 333.229 471.276 L 334.526 471.276 L 334.526 468.798 L 335.953 468.798 L 335.953 467.645 L 334.526 467.645 L 334.526 461.493 L 333.215 461.493 L 328.835 467.53 L 328.835 468.798 L 333.229 468.798 L 333.229 471.276 L 333.229 471.276 z M 330.045 467.645 L 333.229 463.164 L 333.229 467.645 L 330.045 467.645 L 330.045 467.645 z"
                fill="rgb(0, 0, 255)" stroke="none" fill-rule="nonzero" />
            <path d="M 294.002 559.225 L 292.802 474.677 L 336.774 474.677" />
            <path d="M 293.457 557.3 L 294.002 559.225 L 294.493 557.286" />
        </g>
        <g fill="none" stroke="rgb(0, 0, 255)" stroke-width="0.13" stroke-linecap="butt" stroke-linejoin="miter">
            <path
                d="M 122.459 465.977 L 121.148 465.977 L 121.436 467.504 L 122.156 468.628 L 123.266 469.305 L 124.764 469.55 L 126.249 469.32 L 127.358 468.686 L 128.064 467.691 L 128.323 466.38 L 128.107 465.199 L 127.502 464.435 L 126.522 463.931 L 125.211 463.556 L 124.087 463.282 L 123.352 462.965 L 122.934 462.504 L 122.805 461.784 L 122.934 461.135 L 123.309 460.645 L 123.885 460.314 L 124.678 460.199 L 125.485 460.343 L 126.119 460.732 L 126.537 461.38 L 126.738 462.259 L 128.05 462.259 L 128.05 462.23 L 127.819 460.876 L 127.142 459.867 L 126.076 459.233 L 124.635 459.017 L 123.338 459.233 L 122.329 459.838 L 121.681 460.775 L 121.45 461.985 L 121.638 463.066 L 122.185 463.801 L 123.05 464.291 L 124.231 464.665 L 125.398 464.997 L 126.277 465.314 L 126.811 465.775 L 126.998 466.524 L 126.825 467.288 L 126.378 467.864 L 125.701 468.225 L 124.822 468.34 L 123.842 468.181 L 123.093 467.72 L 122.617 466.971 L 122.459 465.977 L 122.459 465.977 z M 131.407 469.276 L 132.862 469.276 L 133.338 466.899 L 134.174 464.68 L 135.355 462.619 L 136.897 460.689 L 136.897 459.493 L 130.038 459.493 L 130.038 460.804 L 135.514 460.804 L 133.929 462.749 L 132.733 464.781 L 131.897 466.942 L 131.407 469.276 L 131.407 469.276 z M 138.612 464.392 L 138.828 466.654 L 139.505 468.268 L 140.586 469.248 L 142.084 469.565 L 143.568 469.248 L 144.649 468.268 L 145.312 466.654 L 145.542 464.392 L 145.312 462.144 L 145.038 461.25 L 144.649 460.516 L 143.568 459.536 L 142.084 459.204 L 140.586 459.536 L 139.505 460.53 L 138.828 462.144 L 138.612 464.392 L 138.612 464.392 z M 139.995 464.392 L 140.11 462.648 L 140.47 461.395 L 141.119 460.66 L 142.084 460.4 L 143.035 460.66 L 143.684 461.395 L 144.044 462.648 L 144.159 464.392 L 144.044 466.15 L 143.684 467.403 L 143.035 468.138 L 142.084 468.383 L 141.119 468.138 L 140.47 467.403 L 140.11 466.15 L 139.995 464.392 L 139.995 464.392 z M 147.718 469.276 L 149.044 469.276 L 149.044 465.055 L 150.514 465.055 L 151.998 464.982 L 153.179 464.478 L 153.943 463.498 L 154.202 462.158 L 154.001 460.919 L 153.424 460.011 L 152.473 459.464 L 151.176 459.276 L 147.718 459.276 L 147.718 469.276 L 147.718 469.276 z M 150.816 460.501 L 151.681 460.588 L 152.315 460.861 L 152.689 461.366 L 152.819 462.158 L 152.675 462.994 L 152.286 463.498 L 151.623 463.758 L 150.715 463.83 L 149.044 463.83 L 149.044 460.501 L 150.816 460.501 L 150.816 460.501 z M 155.859 466.668 L 156.176 467.85 L 156.883 468.772 L 157.92 469.348 L 159.246 469.565 L 160.701 469.305 L 161.839 468.599 L 162.56 467.475 L 162.834 466.034 L 162.589 464.694 L 161.897 463.642 L 160.816 462.965 L 159.419 462.72 L 158.338 462.893 L 157.502 463.369 L 157.906 460.674 L 162.286 460.674 L 162.286 459.493 L 156.94 459.493 L 156.148 464.795 L 157.3 464.795 L 158.136 464.118 L 159.202 463.873 L 160.125 464.031 L 160.831 464.493 L 161.277 465.199 L 161.436 466.106 L 161.277 467.014 L 160.816 467.72 L 160.11 468.167 L 159.202 468.325 L 158.439 468.225 L 157.848 467.893 L 157.416 467.374 L 157.2 466.668 L 155.859 466.668 L 155.859 466.668 z"
                fill="rgb(0, 0, 255)" stroke="none" fill-rule="nonzero" />
            <path d="M 120.998 571.699 L 119.798 472.677 L 163.77 472.677" />
            <path d="M 120.457 569.774 L 120.998 571.699 L 121.493 569.761" />
        </g>
    </svg>