<?xml version='1.0' encoding='UTF-8' ?>
<!DOCTYPE svg PUBLIC "-//W3C//DTD SVG 1.1//EN" "http://www.w3.org/Graphics/SVG/1.1/DTD/svg11.dtd" [ 
 <!ATTLIST svg 
                                               xmlns:dsy CDATA #FIXED "http://www.3ds.com/print"  
                                               dsy:text-version CDATA #IMPLIED > 

                                               <!ATTLIST text 
                                               xmlns:dsy CDATA #FIXED "http://www.3ds.com/print" 
                                               dsy:text-version CDATA #IMPLIED > 
                                                ]>
<svg style = "background : rgb(255,255,255)" width = "594" xmlns = "http://www.w3.org/2000/svg" height = "420" version = "1.1" viewBox = "0 0 594 420" xmlns:dsy = "http://www.3ds.com/print" xmlns:xlink = "http://www.w3.org/1999/xlink" dsy:text-version = "21000"><g fill = "none" stroke = "rgb(255, 0, 0)" stroke-width = "0.7" stroke-linecap = "butt" stroke-linejoin = "miter"><path d = "M 83.1102 83.1174 L 83.2247 83.2361 L 84.2525 84.2861 L 85.5133 85.5282 L 86.4101 86.3785 L 87.3179 87.2117 L 88.0434 87.8583 L 89.1875 88.8445 L 90.3366 89.7953 L 91.4848 90.7076 L 92.6308 91.5822 L 93.87 92.4891 L 95.1192 93.3646 L 96.3891 94.2163 L 97.5331 94.9519 L 98.705 95.6753 L 99.904 96.3851 L 101.124 97.077 L 102.047 97.5802 L 103.444 98.3102 L 104.855 99.0092 L 106.279 99.6769 L 107.717 100.313 L 109.167 100.916 L 110.631 101.487 L 112.108 102.023 L 113.597 102.525 L 115.099 102.991"/><path d = "M 491.655 24.984 L 491.654 24.9849 L 491.653 24.9884 L 491.651 25.0691 L 491.661 25.6573"/><path d = "M 491.661 25.6576 L 491.661 25.6669"/><path d = "M 491.661 25.6671 L 491.706 26.9457 L 491.717 27.1661"/><path d = "M 491.71692 27.165985 A 613.8717 613.8717 0 0 0 491.84344 29.363556"/><path d = "M 491.844 29.3635 L 491.885 30.0529 L 491.928 30.7213"/><path d = "M 491.99417 31.770081 A 60.042603 60.042603 0 0 0 491.92786 30.721344"/><path d = "M 491.994 31.7704 L 492.345 37.8539 L 492.862 46.5138 L 493.357 54.4932"/><path d = "M 493.21445 55.401276 A 10.456055 4.6262207 -2.9347343 0 0 493.35718 54.493225"/><path d = "M 493.214 55.4017 L 493.106 55.6495 L 492.968 55.8965 L 492.801 56.141 L 492.606 56.3815 L 492.461 56.5389 L 492.305 56.6936 L 491.962 56.9932 L 491.649 57.2305 L 491.314 57.4564 L 490.959 57.6704 L 490.683 57.8228 L 490.398 57.9679 L 489.931 58.1846 L 489.449 58.3835 L 488.957 58.5653 L 488.582 58.6906 L 488.203 58.8065 L 487.648 58.959"/><path d = "M 487.648 58.959 L 486.158 59.3424"/><path d = "M 486.158 59.3424 L 485.737 59.4512"/><path d = "M 485.737 59.4512 L 485.649 59.4741"/><path d = "M 485.6492 59.473999 A 1.7380371 1.7380371 0 0 0 485.3699 59.576416"/><path d = "M 485.37 59.576538 A 1.8859863 1.8859863 0 0 0 484.90601 59.88031"/><path d = "M 484.906 59.8804 L 484.857 59.9252"/><path d = "M 484.857 59.9252 L 484.65 60.1022 L 484.426 60.2589 L 484.194 60.3907 L 483.952 60.4977 L 483.707 60.5759"/><path d = "M 483.707 60.5759 L 189.156 136.413 L 175.697 139.879"/><path d = "M 175.697 139.879 L 172.199 140.78"/><path d = "M 172.199 140.78 L 172.104 140.805"/><path d = "M 172.104 140.805 L 172.077 140.812"/><path d = "M 172.077 140.812 L 171.492 140.962"/><path d = "M 171.492 140.962 L 171.147 141.051"/><path d = "M 171.147 141.051 L 170.31 141.267 L 169.047 141.596 L 167.29 142.063"/><path d = "M 167.29 142.063 L 166.376 142.304 L 165.449 142.538 L 164.364 142.802 L 163.262 143.058 L 161.12 143.528 L 158.889 143.981 L 156.606 144.41"/><path d = "M 156.606 144.40991 A 133.63065 133.63065 0 0 0 149.18616 145.9631"/><path d = "M 147.67593 146.30853 A 84.280029 84.280029 0 0 0 149.18614 145.96307"/><path d = "M 147.676 146.309 L 146.105 146.647 L 144.983 146.895 L 144.729 146.955 L 144.063 147.128 L 143.587 147.275 L 143.209 147.416 L 142.968 147.526"/><path d = "M 142.968 147.526 L 141.255 148.392 L 139.555 149.289 L 137.867 150.216 L 136.191 151.172 L 134.528 152.156 L 133.145 153.002 L 131.77 153.866 L 130.404 154.748 L 129.411 155.403 L 128.423 156.068 L 127.387 156.776 L 126.355 157.495"/><path d = "M 126.355 157.495 L 125.323 158.2 L 124.267 158.884 L 123.19 159.542 L 122.093 160.175 L 120.979 160.778 L 119.85 161.352 L 118.708 161.892 L 117.554 162.398 L 116.383 162.87 L 115.794 163.091 L 115.203 163.302 L 114.613 163.502 L 114.021 163.691 L 113.132 163.954 L 112.241 164.191 L 111.351 164.402 L 110.379 164.599"/><path d = "M 110.379 164.599 L 110.199 164.632"/><path d = "M 102.27452 164.75011 A 36.877319 21.785278 -227.16307 0 0 110.19954 164.63231"/><path d = "M 102.274 164.75 L 101.477 164.588 L 101.086 164.494 L 100.699 164.391 L 100.318 164.279 L 99.942 164.158 L 99.4501 163.983 L 98.9693 163.792 L 98.5 163.587 L 98.166 163.427 L 97.8388 163.26 L 97.5197 163.085 L 97.2076 162.903 L 96.7525 162.615 L 96.3144 162.312 L 95.894 161.992 L 95.4918 161.657 L 95.1082 161.307 L 94.7438 160.944 L 94.3988 160.567 L 94.0735 160.178 L 93.8682 159.913 L 93.6718 159.643 L 93.4835 159.366 L 93.3044 159.086 L 93.0302 158.616"/><path d = "M 93.0302 158.616 L 91.6738 156.143 L 90.3247 153.659 L 88.3909 150.066 L 86.4704 146.466 L 83.2559 140.397 L 79.026 132.398 L 76.9238 128.447"/><path d = "M 76.923828 128.44739 A 986.05042 986.05042 0 0 0 74.884949 124.64941"/><path d = "M 74.712944 124.31671 A 10.270386 10.270386 0 0 0 74.88485 124.64948"/><path d = "M 74.626823 124.13739 A 13.193359 13.193359 0 0 0 74.712845 124.31674"/><path d = "M 74.308067 123.27173 A 10.946777 10.946777 0 0 0 74.626877 124.13742"/><path d = "M 74.3082 123.272 L 74.1971 122.9 L 74.0921 122.494 L 73.9971 122.073 L 73.9081 121.631 L 73.7327 120.646 L 73.6494 120.118 L 73.5734 119.581 L 73.5075 119.031 L 73.455 118.477"/><path d = "M 73.394386 117.31381 A 20.825439 20.825439 0 0 0 73.455002 118.47687"/><path d = "M 73.395905 117.09177 A 18.002686 18.002686 0 0 0 73.394424 117.31375"/><path d = "M 73.413193 116.53867 A 17.53833 17.53833 0 0 0 73.395874 117.09186"/><path d = "M 73.4131 116.539 L 73.5153 114.493 L 73.7003 111.068 L 74.084 104.496 L 74.4418 98.9255 L 74.6389 96.0454 L 75.1147 89.5433 L 75.2162 88.259"/><path d = "M 75.2162 88.259 L 75.2836 87.5823 L 75.3729 86.9122 L 75.4842 86.2498 L 75.619 85.5928 L 75.7627 85.0062 L 75.9322 84.4207 L 76.1318 83.8367"/><path d = "M 76.1317 83.8368 L 76.3386 83.3181 L 76.5645 82.8239 L 76.8016 82.3658 L 77.023 81.9824 L 77.2379 81.6458 L 77.5154 81.2622 L 77.6465 81.1034 L 77.7753 80.9633 L 77.9316 80.8153 L 78.0941 80.6857"/><path d = "M 78.0941 80.6857 L 78.164 80.6349"/><path d = "M 79.791908 79.59021 A 37.873657 15.47583 -253.37325 0 0 78.163986 80.634735"/><path d = "M 79.791855 79.590393 A 188.26974 188.26974 0 0 0 83.106049 83.113281"/><path d = "M 83.1062 83.1132 L 83.1102 83.1174"/></g><g fill = "none" stroke = "rgb(255, 0, 0)" stroke-width = "0.35" stroke-linecap = "butt" stroke-linejoin = "miter"><path d = "M 486.199 30.7798 L 486.461 30.7581 L 486.991 30.7424 L 487.525 30.7594"/><path d = "M 485.073 31.0284 L 486.199 30.7793"/><path d = "M 487.525 30.7594 L 487.863 30.7852 L 488.199 30.8218 L 488.569 30.8739 L 488.936 30.9366 L 489.616 31.0798 L 490.282 31.2488 L 490.862 31.4136 L 491.24 31.5284 L 491.995 31.7701"/><path d = "M 493.21429 55.401245 A 10.437256 4.6220703 -2.9397559 0 0 493.35706 54.493225"/><path d = "M 493.357 54.4932 L 492.958 48.0876 L 492.276 36.6757 L 491.994 31.7704"/><path d = "M 485.604 57.2505 L 485.318 52.532 L 484.89 45.1791 L 484.609 40.0068 L 484.258 33.2224 L 484.183 31.7782"/><path d = "M 485.046 30.9957 L 485.525 30.8899"/><path d = "M 485.52469 30.890015 A 10.705322 10.705322 0 0 0 485.04581 30.994873"/><path d = "M 485.046 30.9957 L 485.045 30.995"/><path d = "M 485.04611 30.995789 A 2.1799316 2.1799316 0 0 0 484.95667 31.017548"/><path d = "M 484.957 31.0175 L 485.046 30.995"/><path d = "M 484.36328 30.997803 A 2.376709 1.3757324 -4.0299826 0 0 483.50385 31.491364"/><path d = "M 484.321 31.3425 L 484.242 31.3287 L 484.158 31.3251 L 483.989 31.34 L 483.816 31.3768 L 483.652 31.4291 L 483.504 31.4915"/><path d = "M 484.321 31.3425 L 484.399 31.2765 L 484.487 31.2151 L 484.596 31.1534 L 484.714 31.0992 L 484.957 31.0175"/><path d = "M 484.376 31.361 L 484.498 31.2635 L 484.643 31.1781 L 484.806 31.1068 L 484.937 31.0634 L 485.073 31.0284"/><path d = "M 485.073 31.0284 L 485.046 30.9957"/><path d = "M 483.02405 32.339508 A 3.6101074 3.6101074 0 0 0 483.11096 32.28244"/><path d = "M 483.111 32.2825 L 483.121 32.1427 L 483.155 32.0043 L 483.211 31.8687 L 483.266 31.7716 L 483.332 31.6774 L 483.412 31.5829 L 483.504 31.4915"/><path d = "M 483.024 32.3395 L 483.032 32.21 L 483.059 32.0813 L 483.105 31.9548 L 483.151 31.8621 L 483.208 31.7715 L 483.349 31.5986 L 483.426 31.5229"/><path d = "M 484.702 57.5721 L 484.389 52.895 L 483.38 37.8474 L 483.114 33.7717 L 483.024 32.3395"/><path d = "M 484.702 57.5721 L 484.754 57.5352"/><path d = "M 484.754 57.5352 L 484.446 52.8536 L 483.459 37.7937 L 483.199 33.7155 L 483.111 32.2825"/><path d = "M 484.702 57.5726 L 484.702 57.5721"/><path d = "M 484.754 57.5356 L 484.754 57.5352"/><path d = "M 484.735 58.0682 L 484.702 57.5726"/><path d = "M 484.786 58.0316 L 484.754 57.5356"/><path d = "M 485.517 57.2562 L 485.517 57.2557"/><path d = "M 485.517 57.2557 L 485.389 57.2717 L 485.186 57.3221 L 484.995 57.397 L 484.819 57.4921 L 484.754 57.5352"/><path d = "M 484.906 59.8804 L 484.786 58.0316"/><path d = "M 484.857 59.9252 L 484.735 58.0682"/><path d = "M 484.857 59.9252 L 484.906 59.8804"/><path d = "M 485.547 57.7554 L 485.517 57.2562"/><path d = "M 485.649 59.4741 L 485.547 57.7554"/><path d = "M 485.37 59.576538 A 1.8859863 1.8859863 0 0 0 484.90601 59.88031"/><path d = "M 485.64923 59.474121 A 1.737915 1.737915 0 0 0 485.36996 59.576538"/><path d = "M 485.634 57.7501 L 485.604 57.251"/><path d = "M 485.604 57.251 L 485.517 57.2562"/><path d = "M 485.737 59.4512 L 485.634 57.7501"/><path d = "M 485.649 59.4741 L 485.737 59.4512"/><path d = "M 486.158 59.3424 L 485.737 59.4512"/><path d = "M 491.661 25.6671 L 482.426 27.7155"/><path d = "M 482.788 29.1475 L 482.408 29.2317"/><path d = "M 491.717 27.1661 L 482.788 29.1477"/><path d = "M 491.661 25.6671 L 491.706 26.9443 L 491.717 27.1661"/><path d = "M 491.661 25.6576 L 482.427 27.7058"/><path d = "M 491.661 25.6576 L 491.661 25.6669"/><path d = "M 491.661 25.6573 L 491.651 25.0507 L 491.653 24.9933 L 491.654 24.9856 L 491.654 24.9844 L 491.655 24.984"/><path d = "M 79.791855 79.590393 A 188.26974 188.26974 0 0 0 83.106049 83.113281"/><path d = "M 79.791847 79.590302 A 39.885498 16.000244 -253.97279 0 0 78.163933 80.634827"/><path d = "M 76.1317 83.8368 L 76.3386 83.3181 L 76.5645 82.8239 L 76.8016 82.3658 L 77.023 81.9824 L 77.2379 81.6458 L 77.5154 81.2622 L 77.6465 81.1034 L 77.7753 80.9633 L 77.9316 80.8153 L 78.0941 80.6857"/><path d = "M 78.164 80.6349 L 78.0941 80.6857"/><path d = "M 76.1318 83.8367 L 75.9322 84.4207 L 75.7627 85.0062 L 75.619 85.5928 L 75.4842 86.2498 L 75.3729 86.9122 L 75.2836 87.5823 L 75.2162 88.259"/><path d = "M 75.2162 88.259 L 75.1147 89.5436 L 74.6389 96.0453 L 74.4421 98.9224 L 74.0844 104.489 L 73.7007 111.06 L 73.5157 114.485 L 73.4131 116.539"/><path d = "M 73.413132 116.53867 A 17.53833 17.53833 0 0 0 73.395813 117.09186"/><path d = "M 73.395874 117.09177 A 18.004761 18.004761 0 0 0 73.394394 117.31375"/><path d = "M 73.394432 117.31384 A 20.826172 20.826172 0 0 0 73.455048 118.4769"/><path d = "M 73.455 118.477 L 73.5075 119.031 L 73.5734 119.581 L 73.6494 120.118 L 73.7327 120.646 L 73.9081 121.631 L 73.9971 122.073 L 74.0921 122.494 L 74.1971 122.9 L 74.3082 123.272"/><path d = "M 74.308067 123.2717 A 10.946777 10.946777 0 0 0 74.626877 124.13742"/><path d = "M 74.626976 124.13742 A 13.199097 13.199097 0 0 0 74.712997 124.31677"/><path d = "M 74.712822 124.31683 A 10.268799 10.268799 0 0 0 74.884735 124.6496"/><path d = "M 76.923767 128.44745 A 986.07239 986.07239 0 0 0 74.884888 124.64948"/><path d = "M 76.9238 128.447 L 79.026 132.398 L 83.2559 140.397 L 86.4704 146.466 L 88.3909 150.066 L 90.3247 153.66 L 91.6738 156.143 L 93.0302 158.616"/><path d = "M 93.0302 158.616 L 93.129 158.792 L 93.4456 159.308 L 93.6314 159.585 L 93.8263 159.857 L 94.0299 160.123 L 94.2424 160.385 L 94.5778 160.767 L 94.9327 161.136 L 95.3069 161.492 L 95.6999 161.834 L 96.1113 162.161 L 96.5406 162.472 L 96.9872 162.767 L 97.4505 163.046 L 97.7665 163.221 L 98.0894 163.389 L 98.4228 163.551 L 98.7628 163.704 L 99.4261 163.974 L 100.111 164.214 L 100.815 164.423 L 101.536 164.602 L 102.274 164.75"/><path d = "M 113.84181 102.69092 A 64.142822 64.142822 0 0 0 114.40256 102.82831"/><path d = "M 113.828 102.688 L 112.717 102.399 L 111.611 102.091 L 110.671 101.813 L 109.393 101.411 L 107.978 100.933 L 106.838 100.523 L 105.94 100.183 L 105.003 99.8146 L 104.091 99.4398 L 103.18 99.0511 L 102.018 98.5326 L 100.864 97.9928 L 99.4887 97.316 L 99.04 97.0872 L 97.7019 96.3807 L 96.708 95.8319 L 95.7234 95.2675 L 94.7489 94.6877 L 93.5915 93.9709 L 92.4497 93.2324 L 91.3236 92.472 L 90.2257 91.6986 L 89.1419 90.9025 L 88.0717 90.0825 L 86.8434 89.0975 L 86.0982 88.4757 L 85.3238 87.809 L 84.5631 87.1327 L 83.7263 86.3629 L 82.6048 85.2859 L 81.5067 84.1776"/><path d = "M 115.099 102.991 L 113.597 102.525 L 112.108 102.023 L 110.631 101.487 L 109.167 100.916 L 107.717 100.313 L 106.279 99.6769 L 104.855 99.0092 L 103.444 98.3102 L 102.047 97.5802 L 101.124 97.077 L 99.904 96.3851 L 98.705 95.6753 L 97.5331 94.9519 L 96.3891 94.2163 L 95.1192 93.3646 L 93.87 92.4891 L 92.6308 91.5822 L 91.4848 90.7076 L 90.3366 89.7953 L 89.1875 88.8445 L 88.0434 87.8583 L 87.3179 87.2117 L 86.4101 86.3785 L 85.5133 85.5282 L 84.2525 84.2861 L 83.2247 83.2361 L 83.1102 83.1174"/><path d = "M 83.1102 83.1174 L 83.1062 83.1132"/><path d = "M 138.167 104.062 L 136.65 104.381 L 135.128 104.665 L 133.601 104.913 L 132.069 105.124 L 130.531 105.298 L 128.988 105.433 L 127.705 105.517 L 126.418 105.574 L 125.129 105.604 L 123.669 105.606 L 122.207 105.575 L 120.742 105.509 L 119.276 105.41 L 117.81 105.277 L 116.344 105.112 L 114.879 104.913 L 113.416 104.681 L 111.964 104.418 L 110.516 104.123 L 109.074 103.796 L 107.637 103.438 L 106.207 103.049 L 104.738 102.614 L 103.279 102.146 L 101.831 101.646 L 100.396 101.113 L 98.9743 100.548 L 97.5683 99.951 L 96.1792 99.3221 L 94.8375 98.6758 L 93.5145 97.999 L 92.2116 97.2916 L 90.9303 96.5537 L 89.6718 95.7853 L 88.4378 94.9865 L 87.8304 94.5757 L 87.2295 94.1572 L 86.341 93.5154 L 85.4683 92.8566 L 84.6118 92.1809 L 83.7722 91.4884 L 82.9068 90.7415 L 82.0608 89.9761 L 81.2348 89.1927 L 80.3477 88.3086"/><path d = "M 78.3818 117.63 L 80.5675 117.233 L 82.7505 116.819 L 84.9298 116.394 L 87.1049 115.957 L 91.4436 115.059 L 94.3509 114.441 L 98.8354 113.469 L 103.312 112.477 L 106.329 111.796 L 110.848 110.753 L 115.355 109.683 L 118.669 108.879 L 120.868 108.337 L 125.254 107.245 L 129.09 106.288 L 131.003 105.817 L 133.868 105.123 L 136.016 104.618 L 138.168 104.13"/><path d = "M 79.2527 122.415 L 81.5501 121.983 L 83.842 121.515 L 86.1279 121.01 L 88.4066 120.47 L 90.6772 119.898 L 92.9395 119.295 L 95.5167 118.572 L 98.0855 117.816 L 100.315 117.136 L 102.54 116.437 L 104.461 115.821 L 108.293 114.566 L 114.022 112.66 L 116.958 111.689 L 118.425 111.209 L 120.953 110.395 L 123.48 109.601 L 125.101 109.105 L 126.724 108.62 L 128.148 108.205 L 129.573 107.8 L 131.86 107.175 L 134.149 106.581 L 136.439 106.02 L 138.729 105.494"/><path d = "M 147.67593 146.30853 A 84.275635 84.275635 0 0 0 149.18613 145.96304"/><path d = "M 156.606 144.40985 A 133.62625 133.62625 0 0 0 149.18614 145.96301"/><path d = "M 156.606 144.41 L 158.889 143.981 L 161.12 143.528 L 163.262 143.058 L 164.364 142.802 L 165.449 142.538 L 166.376 142.304 L 167.29 142.063"/><path d = "M 171.147 141.051 L 170.311 141.267 L 169.047 141.596 L 167.29 142.063"/><path d = "M 171.147 141.051 L 171.492 140.962"/><path d = "M 142.968 147.526 L 143.209 147.416 L 143.587 147.275 L 144.063 147.128 L 144.729 146.955 L 144.983 146.895 L 146.105 146.647 L 147.676 146.309"/><path d = "M 126.355 157.495 L 127.387 156.776 L 128.423 156.068 L 129.411 155.403 L 130.404 154.748 L 131.77 153.866 L 133.145 153.002 L 134.528 152.156 L 136.191 151.172 L 137.867 150.216 L 139.555 149.289 L 141.255 148.392 L 142.968 147.526"/><path d = "M 126.355 157.495 L 125.323 158.2 L 124.267 158.884 L 123.19 159.542 L 122.093 160.175 L 120.979 160.778 L 119.85 161.352 L 118.708 161.892 L 117.554 162.398 L 116.383 162.87 L 115.794 163.091 L 115.203 163.302 L 114.613 163.502 L 114.021 163.691 L 113.132 163.954 L 112.241 164.191 L 111.351 164.402 L 110.379 164.599"/><path d = "M 110.199 164.632 L 110.379 164.599"/><path d = "M 102.27444 164.7502 A 36.883545 21.787842 -227.1675 0 0 110.19945 164.6324"/><path d = "M 482.427 27.7058 L 138.167 104.062"/><path d = "M 482.426 27.7155 L 138.168 104.13"/><path d = "M 482.408 29.2322 L 482.408 29.2317"/><path d = "M 482.408 29.2322 L 138.729 105.494"/><path d = "M 483.707 60.5759 L 483.575 58.4698"/><path d = "M 171.492 140.962 L 172.077 140.812"/><path d = "M 172.104 140.805 L 172.077 140.812"/><path d = "M 172.199 140.78 L 172.104 140.805"/><path d = "M 175.697 139.879 L 172.199 140.78"/><path d = "M 483.707 60.5759 L 188.496 136.583 L 175.697 139.879"/><path d = "M 483.575 58.4698 L 483.544 57.9722"/><path d = "M 482.50339 31.460571 A 3.7050781 2.0270996 -0.19391143 0 0 482.00098 32.545288"/><path d = "M 483.544 57.9717 L 483.248 53.2649 L 482.637 43.3712 L 482.084 33.9884 L 482.001 32.5454"/><path d = "M 482.503 31.4606 L 482.622 31.3562 L 482.751 31.2571 L 482.9 31.1559 L 483.059 31.0614 L 483.386 30.8988 L 483.738 30.7617 L 484.119 30.6472"/><path d = "M 484.119 30.6472 L 484.984 30.4357 L 485.859 30.2444 L 486.744 30.0724 L 487.414 29.955 L 488.087 29.8464 L 489.442 29.6527 L 490.24 29.5508 L 491.844 29.3635"/><path d = "M 491.71704 27.166077 A 613.95007 613.95007 0 0 0 491.84357 29.363525"/><path d = "M 484.857 59.9252 L 484.65 60.1022 L 484.426 60.2589 L 484.194 60.3907 L 483.952 60.4977 L 483.707 60.5759"/><path d = "M 483.544 57.9722 L 483.757 57.9554 L 483.965 57.9154 L 484.165 57.8546 L 484.393 57.7577 L 484.608 57.6364 L 484.702 57.5726"/><path d = "M 483.544 57.9717 L 483.757 57.955 L 483.965 57.9149 L 484.165 57.8541 L 484.393 57.7572 L 484.608 57.6359 L 484.702 57.5721"/><path d = "M 482.001 32.5454 L 482.123 32.5864 L 482.269 32.609 L 482.415 32.5992 L 482.514 32.5774 L 482.719 32.5035 L 482.931 32.3955 L 483.024 32.3395"/><path d = "M 483.426 31.5229 L 483.585 31.391 L 483.765 31.2703 L 483.963 31.1619 L 484.12 31.0891 L 484.285 31.0237 L 484.632 30.9159"/><path d = "M 484.632 30.9158 L 484.542 30.9225 L 484.469 30.9075 L 484.366 30.8607 L 484.243 30.7714 L 484.119 30.6472"/><path d = "M 485.517 57.2557 L 485.236 52.5366 L 484.814 45.1819 L 484.538 40.0082 L 484.193 33.222 L 484.12 31.7775"/><path d = "M 484.12 31.7775 L 484.024 31.7925 L 483.924 31.8207 L 483.71 31.908 L 483.545 31.9926 L 483.388 32.0864 L 483.111 32.2825"/><path d = "M 485.604 57.251 L 485.604 57.2505"/><path d = "M 487.648 58.959 L 486.158 59.3424"/><path d = "M 493.214 55.4017 L 493.106 55.6495 L 492.968 55.8965 L 492.801 56.141 L 492.606 56.3815 L 492.461 56.5389 L 492.305 56.6936 L 491.962 56.9932 L 491.649 57.2305 L 491.314 57.4564 L 490.959 57.6704 L 490.683 57.8228 L 490.398 57.9679 L 489.931 58.1846 L 489.449 58.3835 L 488.957 58.5653 L 488.582 58.6906 L 488.203 58.8065 L 487.648 58.959"/><path d = "M 484.12 31.7775 L 484.128 31.6663 L 484.163 31.5549 L 484.228 31.4462 L 484.321 31.3425"/><path d = "M 484.18317 31.778137 A 0.35375977 0.35375977 0 0 0 484.11975 31.777496"/><path d = "M 484.183 31.7782 L 484.19 31.672 L 484.225 31.5656 L 484.287 31.4612 L 484.376 31.3612"/><path d = "M 484.633 30.9156 L 484.675 30.9048"/><path d = "M 487.661 30.5117 L 488.475 30.5059 L 489.001 30.5175 L 489.531 30.5388 L 490.6 30.6062 L 491.928 30.7213"/><path d = "M 491.928 30.7213 L 491.882 30.005 L 491.844 29.3635"/><path d = "M 484.635 30.915 L 484.632 30.9158"/><path d = "M 493.214 55.4011 L 493.214 55.4017"/><path d = "M 485.525 30.8899 L 485.86 30.8292 L 486.199 30.7798"/><path d = "M 491.99432 31.770081 A 60.036743 60.036743 0 0 0 491.92804 30.721344"/><path d = "M 491.655 24.9838 L 482.493 27.0156"/><path d = "M 113.836 102.69 L 113.86 102.696"/><path d = "M 482.493 27.0156 L 138.583 103.295"/><path d = "M 484.674 30.9049 L 485.209 30.7817 L 485.761 30.682 L 486.333 30.6047 L 486.917 30.5496 L 487.661 30.5117"/><path d = "M 484.63492 30.915009 A 3.2059326 3.2059326 0 0 0 484.36322 30.997803"/></g><g fill = "none" stroke = "rgb(255, 0, 0)" stroke-width = "0.7" stroke-linecap = "butt" stroke-linejoin = "miter"><path d = "M 81.5816 84.255 L 81.5067 84.1776"/><path d = "M 81.5067 84.1776 L 81.1543 83.8118"/><path d = "M 78.173141 80.628174 A 174.93759 174.93759 0 0 0 81.154205 83.811737"/><path d = "M 78.1731 80.6283 L 78.7797 80.2087 L 79.3939 79.8212 L 80.0154 79.4678 L 80.2235 79.3583"/><path d = "M 80.2235 79.3583 L 80.8528 79.0542 L 81.4889 78.7881 L 81.8095 78.6698 L 82.1316 78.5614 L 82.6175 78.418 L 83.1068 78.2976 L 83.5992 78.2008 L 84.0946 78.1274 L 84.6631 78.0729 L 85.2348 78.0492 L 85.8096 78.0562"/><path d = "M 85.8096 78.0562 L 86.364 78.0917 L 86.9206 78.155 L 87.4792 78.2457 L 88.0395 78.3634 L 88.5388 78.4902 L 89.0392 78.6375 L 89.5407 78.8047 L 89.9173 78.9429 L 90.2943 79.0919 L 91.0468 79.4202 L 91.8004 79.7887 L 92.555 80.1959 L 93.3418 80.6595"/><path d = "M 93.3418 80.6595 L 93.5468 80.7867 L 94.3674 81.3207 L 95.1881 81.8934 L 95.3941 82.0431"/><path d = "M 98.3296 84.396 L 98.3337 84.3994"/><path d = "M 114.134 102.763 L 113.844 102.692"/><path d = "M 112.51795 102.34528 A 64.932007 64.932007 0 0 0 113.8279 102.68741"/><path d = "M 110.4243 101.73782 A 66.370361 66.370361 0 0 0 112.23921 102.26871"/><path d = "M 105.21956 99.90094 A 68.739868 68.739868 0 0 0 110.22051 101.67487"/><path d = "M 99.900101 97.522339 A 70.840332 70.840332 0 0 0 104.68531 99.685699"/><path d = "M 88.383247 90.324799 A 52.474365 38.375977 -336.87476 0 0 98.523949 96.819061"/><path d = "M 81.581627 84.254913 A 317.98282 138.85196 -36.70417 0 0 88.139664 90.13562"/></g><g fill = "none" stroke = "rgb(255, 0, 0)" stroke-width = "0.35" stroke-linecap = "butt" stroke-linejoin = "miter"><path d = "M 81.5816 84.255 L 81.5067 84.1776"/><path d = "M 114.403 102.828 L 113.312 102.556 L 112.226 102.265 L 110.85 101.868 L 109.613 101.483 L 108.542 101.128 L 107.603 100.801 L 106.776 100.5 L 105.954 100.189 L 104.698 99.691 L 103.464 99.1737 L 102.235 98.6313 L 101.015 98.0649 L 99.6272 97.3859 L 98.2566 96.678 L 97.3767 96.2034 L 96.7983 95.8826 L 95.5041 95.1388 L 94.2253 94.3672 L 92.9625 93.5679 L 91.7162 92.7407 L 90.4867 91.8854 L 89.398 91.0936 L 88.3294 90.2831 L 87.1634 89.3589 L 86.4164 88.7437 L 85.3571 87.8381 L 84.3192 86.9111 L 83.3629 86.0198 L 82.4653 85.1482 L 81.5816 84.255"/><path d = "M 98.3336 84.3994 L 98.3296 84.396"/><path d = "M 98.1792 84.2701 L 96.9372 83.2454 L 96.3748 82.7942 L 95.6108 82.2037 L 95.3941 82.0431"/><path d = "M 93.3418 80.6595 L 93.5468 80.7867 L 94.3674 81.3207 L 95.1881 81.8934 L 95.3941 82.0431"/><path d = "M 85.8096 78.0562 L 86.364 78.0917 L 86.9206 78.155 L 87.4792 78.2457 L 88.0395 78.3634 L 88.5388 78.4902 L 89.0392 78.6375 L 89.5407 78.8047 L 89.9173 78.9429 L 90.2943 79.0919 L 91.0468 79.4202 L 91.8004 79.7887 L 92.555 80.1959 L 93.3418 80.6595"/><path d = "M 80.2235 79.3583 L 80.8528 79.0542 L 81.4889 78.7881 L 81.8095 78.6698 L 82.1316 78.5614 L 82.6175 78.418 L 83.1068 78.2976 L 83.5992 78.2008 L 84.0946 78.1274 L 84.6631 78.0729 L 85.2348 78.0492 L 85.8096 78.0562"/><path d = "M 78.1731 80.6283 L 78.7797 80.2087 L 79.3939 79.8212 L 80.0154 79.4678 L 80.2235 79.3583"/><path d = "M 78.173141 80.628174 A 174.93759 174.93759 0 0 0 81.154205 83.811737"/><path d = "M 81.5067 84.1776 L 81.1543 83.8118"/><path d = "M 113.824 102.687 L 113.828 102.687"/><path d = "M 106.647 91.1978 L 106.531 91.1052"/><path d = "M 98.331177 84.397308 A 521.33838 521.33838 0 0 0 100.72479 86.389771"/></g><g fill = "none" stroke = "rgb(126, 162, 151)" stroke-width = "0.35" stroke-linecap = "butt" stroke-linejoin = "miter"><path d = "M 524.876 48.0824 L 524.647 43.0365 L 524.537 40.4808 L 524.377 36.5549 L 524.227 32.4564 L 524.104 28.7437 L 524.087 28.1772"/><path d = "M 500.994 33.3047 L 505.663 32.2709 L 524.087 28.1777"/><path d = "M 501.786 53.2091 L 501.558 48.1698 L 501.446 45.6017 L 501.208 39.6251 L 500.994 33.3041"/><path d = "M 524.087 28.1777 L 524.088 28.1121 L 524.083 27.9487 L 524.07 27.5599 L 524.005 25.6381"/><path d = "M 500.994 33.3047 L 500.995 33.238 L 500.956 31.7148 L 500.912 30.765"/><path d = "M 487.525 30.7594 L 487.895 30.7881 L 488.262 30.8297 L 488.64 30.8851 L 489.014 30.9514 L 489.439 31.0396 L 489.86 31.1387 L 490.317 31.2583 L 490.77 31.3865 L 491.311 31.5505 L 491.847 31.7218 L 493.109 32.1432 L 494.042 32.4534 L 494.511 32.6039 L 495.221 32.819 L 495.654 32.9404 L 496.091 33.0543 L 496.798 33.2157 L 497.157 33.2852 L 497.521 33.3459 L 498.104 33.4214 L 498.697 33.4675 L 499.235 33.4801 L 499.743 33.4648 L 500.253 33.4211 L 500.618 33.3715 L 500.994 33.3047"/><path d = "M 524.00537 25.638092 A 1784.104 1784.104 0 0 0 523.91272 22.927063"/><path d = "M 500.82 28.054 L 500.856 29.4099 L 500.912 30.765"/><path d = "M 484.635 30.915 L 484.632 30.9158"/><path d = "M 484.633 30.9156 L 484.676 30.9044"/><path d = "M 487.659 30.5118 L 488.163 30.5044 L 488.672 30.5089 L 489.254 30.5265 L 489.839 30.5553 L 491.02 30.6396 L 492.389 30.7662 L 493.688 30.8949 L 494.335 30.9553 L 495.302 31.0341 L 496.127 31.0844 L 496.95 31.1132 L 497.743 31.1149 L 498.528 31.0857 L 498.932 31.0574 L 499.334 31.0195 L 499.865 30.9534 L 500.391 30.8688 L 500.912 30.765"/><path d = "M 486.199 30.7798 L 486.461 30.7581 L 486.991 30.7424 L 487.525 30.7594"/><path d = "M 485.525 30.8899 L 485.86 30.8292 L 486.199 30.7798"/><path d = "M 485.52469 30.890015 A 10.705322 10.705322 0 0 0 485.04581 30.994873"/><path d = "M 484.957 31.0175 L 485.046 30.995"/><path d = "M 485.073 31.0284 L 486.199 30.7793"/><path d = "M 484.376 31.361 L 484.498 31.2635 L 484.643 31.1781 L 484.806 31.1068 L 484.937 31.0634 L 485.073 31.0284"/><path d = "M 484.183 31.7782 L 484.19 31.672 L 484.225 31.5656 L 484.287 31.4612 L 484.376 31.3612"/><path d = "M 523.913 22.9271 L 523.829 20.5204 L 523.818 20.2018 L 523.804 20.0446"/><path d = "M 500.709 25.1707 L 504.238 24.3905 L 523.803 20.0437"/><path d = "M 500.82 28.0541 L 500.798 26.6511 L 500.783 26.0815 L 500.764 25.6461 L 500.739 25.348 L 500.721 25.2245 L 500.71 25.1715"/><path d = "M 483.426 31.5229 L 483.585 31.391 L 483.765 31.2703 L 483.963 31.1619 L 484.12 31.0891 L 484.285 31.0237 L 484.632 30.9159"/><path d = "M 484.36328 30.997803 A 2.376709 1.3757324 -4.0299764 0 0 483.50385 31.491364"/><path d = "M 502.233 63.1196 L 486.646 67.1377"/><path d = "M 502.233 63.1196 L 501.786 53.2096"/><path d = "M 484.321 31.3425 L 484.399 31.2765 L 484.487 31.2151 L 484.596 31.1534 L 484.714 31.0992 L 484.957 31.0175"/><path d = "M 485.073 31.0284 L 485.046 30.9957"/><path d = "M 485.04611 30.995789 A 2.1799316 2.1799316 0 0 0 484.95667 31.017548"/><path d = "M 484.12 31.7775 L 484.128 31.6663 L 484.163 31.5549 L 484.228 31.4462 L 484.321 31.3425"/><path d = "M 484.18317 31.778137 A 0.35375977 0.35375977 0 0 0 484.11975 31.777496"/><path d = "M 523.624 18.5729 L 523.625 18.7323 L 523.653 19.208 L 523.704 19.6165 L 523.717 19.692 L 523.776 19.9558 L 523.802 20.0427"/><path d = "M 500.53 23.6995 L 523.624 18.5726"/><path d = "M 500.709 25.1707 L 499.587 25.4188 L 496.076 26.1982 L 482.788 29.1477"/><path d = "M 484.119 30.6472 L 485.05 30.4204 L 485.993 30.2172 L 486.946 30.0359 L 487.667 29.913 L 488.392 29.8002 L 489.518 29.6427 L 490.273 29.5468 L 491.788 29.3698 L 493.509 29.1787 L 495.035 29.0031 L 495.796 28.9091 L 496.931 28.7563 L 497.771 28.6311 L 498.605 28.4938 L 499.699 28.2915 L 500.261 28.1765 L 500.82 28.0541"/><path d = "M 482.503 31.4606 L 482.622 31.3562 L 482.751 31.2571 L 482.9 31.1559 L 483.059 31.0614 L 483.386 30.8988 L 483.738 30.7617 L 484.119 30.6472"/><path d = "M 484.632 30.9158 L 484.542 30.9225 L 484.469 30.9075 L 484.366 30.8607 L 484.243 30.7714 L 484.119 30.6472"/><path d = "M 485.634 57.7501 L 485.604 57.251"/><path d = "M 486.159 66.5288 L 485.634 57.7501"/><path d = "M 486.64627 67.137604 A 2.6018066 2.6018066 0 0 0 486.1998 67.202881"/><path d = "M 483.111 32.2825 L 483.121 32.1427 L 483.155 32.0043 L 483.211 31.8687 L 483.266 31.7716 L 483.332 31.6774 L 483.412 31.5829 L 483.504 31.4915"/><path d = "M 484.12 31.7775 L 484.024 31.7925 L 483.924 31.8207 L 483.71 31.908 L 483.545 31.9926 L 483.388 32.0864 L 483.111 32.2825"/><path d = "M 484.321 31.3425 L 484.242 31.3287 L 484.158 31.3251 L 483.989 31.34 L 483.816 31.3768 L 483.652 31.4291 L 483.504 31.4915"/><path d = "M 485.517 57.2557 L 485.236 52.5366 L 484.814 45.1819 L 484.538 40.0082 L 484.193 33.222 L 484.12 31.7775"/><path d = "M 485.604 57.2505 L 485.318 52.532 L 484.89 45.1791 L 484.609 40.0068 L 484.258 33.2224 L 484.183 31.7782"/><path d = "M 523.624 18.5726 L 523.625 18.5631"/><path d = "M 523.625 18.5629 L 500.531 23.6897"/><path d = "M 485.547 57.7554 L 485.517 57.2562"/><path d = "M 485.604 57.251 L 485.517 57.2562"/><path d = "M 486.064 66.5341 L 485.547 57.7554"/><path d = "M 486.19968 67.202667 A 3.1815186 3.1815186 0 0 0 486.10626 67.225861"/><path d = "M 486.106 67.2258 L 486.064 66.5339"/><path d = "M 484.754 57.5352 L 484.446 52.8536 L 483.459 37.7937 L 483.199 33.7155 L 483.111 32.2825"/><path d = "M 485.517 57.2557 L 485.389 57.2717 L 485.186 57.3221 L 484.995 57.397 L 484.819 57.4921 L 484.754 57.5352"/><path d = "M 485.517 57.2562 L 485.517 57.2557"/><path d = "M 485.604 57.251 L 485.604 57.2505"/><path d = "M 523.625 18.5629 L 523.638 18.2489 L 523.654 18.1182 L 523.674 18.0101 L 523.706 17.9139 L 523.726 17.8815 L 523.754 17.8601 L 523.768 17.8584 L 523.788 17.8651 L 523.83 17.9098"/><path d = "M 523.695 17.9407 L 523.831 17.9105"/><path d = "M 500.531 23.6901 L 482.427 27.7058"/><path d = "M 483.575 58.4698 L 483.544 57.9722"/><path d = "M 482.408 29.2322 L 138.729 105.494"/><path d = "M 482.50339 31.460571 A 3.7050781 2.0270996 -0.19391143 0 0 482.00098 32.545288"/><path d = "M 483.544 57.9717 L 483.248 53.2649 L 482.637 43.3712 L 482.084 33.9884 L 482.001 32.5454"/><path d = "M 484.786 58.0316 L 484.754 57.5356"/><path d = "M 485.359 66.7733 L 485.069 62.3981 L 484.786 58.0316"/><path d = "M 486.106 67.2258 L 485.986 67.2794 L 485.876 67.3457 L 485.808 67.3943 L 485.674 67.5044 L 485.548 67.625 L 485.427 67.7561"/><path d = "M 485.427 67.7561 L 485.359 66.7733"/><path d = "M 483.02405 32.339508 A 3.6101074 3.6101074 0 0 0 483.11096 32.28244"/><path d = "M 484.702 57.5721 L 484.389 52.895 L 483.38 37.8474 L 483.114 33.7717 L 483.024 32.3395"/><path d = "M 484.702 57.5721 L 484.754 57.5352"/><path d = "M 484.754 57.5356 L 484.754 57.5352"/><path d = "M 523.988 19.6816 L 523.865 18.2573 L 523.831 17.9105"/><path d = "M 500.53 23.6997 L 482.426 27.7155"/><path d = "M 175.363 147.938 L 178.774 147.06"/><path d = "M 484.195 68.3715 L 178.774 147.06"/><path d = "M 484.195 68.3715 L 484.124 67.2358"/><path d = "M 484.124 67.2358 L 483.575 58.4698"/><path d = "M 79.2527 122.415 L 81.5501 121.983 L 83.842 121.515 L 86.1279 121.01 L 88.4066 120.47 L 90.6772 119.898 L 92.9395 119.295 L 95.5167 118.572 L 98.0855 117.816 L 100.315 117.136 L 102.54 116.437 L 104.461 115.821 L 108.293 114.566 L 114.022 112.66 L 116.958 111.689 L 118.425 111.209 L 120.953 110.395 L 123.48 109.601 L 125.101 109.105 L 126.724 108.62 L 128.148 108.205 L 129.573 107.8 L 131.86 107.175 L 134.149 106.581 L 136.439 106.02 L 138.729 105.494"/><path d = "M 484.735 58.0682 L 484.702 57.5726"/><path d = "M 485.318 66.8037 L 484.735 58.0682"/><path d = "M 485.387 67.8035 L 485.427 67.7561"/><path d = "M 485.387 67.8035 L 485.318 66.8037"/><path d = "M 524.14221 21.487915 A 1160.4724 1160.4724 0 0 0 523.98743 19.681458"/><path d = "M 482.427 27.7058 L 138.167 104.062"/><path d = "M 175.363 147.938 L 172.859 148.587 L 171.131 149.047 L 169.39 149.526 L 167.635 150.032 L 166.569 150.352 L 165.499 150.685 L 164.066 151.148 L 162.626 151.636 L 161.178 152.151 L 159.543 152.763 L 157.901 153.41 L 156.254 154.095 L 154.602 154.817 L 153.224 155.446 L 151.857 156.095 L 150.486 156.771 L 148.645 157.718 L 146.802 158.709 L 144.961 159.744 L 143.513 160.588 L 142.124 161.422 L 140.735 162.279 L 139.351 163.156 L 138.148 163.937 L 136.949 164.731 L 135.061 166.014 L 133.18 167.329 L 131.307 168.674 L 129.443 170.045 L 128.183 170.989 L 126.926 171.944 L 124.421 173.882 L 121.931 175.85 L 120.009 177.392 L 118.054 178.978 L 116.121 180.559 L 113.858 182.421 L 109.362 186.157 L 103.793 190.815 L 101.772 192.498 L 99.6142 194.284 L 97.4947 196.023"/><path d = "M 59.0662 125.367 L 59.2459 126.059 L 59.4664 126.754 L 59.7265 127.45 L 59.9019 127.87 L 60.159 128.437 L 60.3432 128.817 L 60.7289 129.572"/><path d = "M 60.7289 129.572 L 61.9915 131.999"/><path d = "M 97.4947 196.023 L 96.4121 193.988 L 95.2964 191.97 L 94.3419 190.3 L 93.5251 188.907 L 92.519 187.233 L 91.5667 185.683 L 90.5827 184.104 L 89.4299 182.244 L 87.7115 179.416 L 86.006 176.547 L 84.3122 173.639 L 83.1927 171.687 L 82.0783 169.723 L 80.9696 167.747 L 79.8666 165.763 L 78.6033 163.469 L 77.3462 161.164 L 75.9557 158.592 L 74.572 156.012 L 72.9613 152.985 L 71.3601 149.955 L 68.1203 143.777 L 66.0619 139.828 L 61.9915 131.999"/><path d = "M 78.3818 117.63 L 80.5675 117.233 L 82.7505 116.819 L 84.9298 116.394 L 87.1049 115.957 L 91.4436 115.059 L 94.3509 114.441 L 98.8354 113.469 L 103.312 112.477 L 106.329 111.796 L 110.848 110.753 L 115.355 109.683 L 118.669 108.879 L 120.868 108.337 L 125.254 107.245 L 129.09 106.288 L 131.003 105.817 L 133.868 105.123 L 136.016 104.618 L 138.168 104.13"/><path d = "M 524.276 23.1547 L 524.273 23.0808 L 524.25 22.7029 L 524.207 22.1993 L 524.143 21.488"/><path d = "M 523.923 23.2323 L 524.275 23.1542"/><path d = "M 138.167 104.062 L 136.65 104.381 L 135.128 104.665 L 133.601 104.913 L 132.069 105.124 L 130.531 105.298 L 128.988 105.433 L 127.705 105.517 L 126.418 105.574 L 125.129 105.604 L 123.669 105.606 L 122.207 105.575 L 120.742 105.509 L 119.276 105.41 L 117.81 105.277 L 116.344 105.112 L 114.879 104.913 L 113.416 104.681 L 111.964 104.418 L 110.516 104.123 L 109.074 103.796 L 107.637 103.438 L 106.207 103.049 L 104.738 102.614 L 103.279 102.146 L 101.831 101.646 L 100.396 101.113 L 98.9743 100.548 L 97.5683 99.951 L 96.1792 99.3221 L 94.8375 98.6758 L 93.5145 97.999 L 92.2116 97.2916 L 90.9303 96.5537 L 89.6718 95.7853 L 88.4378 94.9865 L 87.8304 94.5757 L 87.2295 94.1572 L 86.341 93.5154 L 85.4683 92.8566 L 84.6118 92.1809 L 83.7722 91.4884 L 82.9068 90.7415 L 82.0608 89.9761 L 81.2348 89.1927 L 80.3477 88.3086"/><path d = "M 113.849 102.693 L 113.842 102.691"/><path d = "M 112.14046 102.24146 A 65.086182 65.086182 0 0 0 113.82422 102.68668"/><path d = "M 105.22455 99.903046 A 69.185303 69.185303 0 0 0 108.6158 101.15292"/><path d = "M 99.899368 97.521973 A 70.832031 70.832031 0 0 0 104.76174 99.716858"/><path d = "M 88.386749 90.327606 A 52.352539 38.21167 -336.78384 0 0 98.687698 96.904816"/><path d = "M 83.51635 86.165497 A 64.367065 64.367065 0 0 0 88.141708 90.136993"/><path d = "M 81.506775 84.177551 A 62.361328 62.361328 0 0 0 83.514221 86.163177"/><path d = "M 525.671 32.2427 L 525.305 30.2106 L 525.124 29.1714 L 524.948 28.0935 L 524.741 26.7268 L 524.54 25.2762 L 524.286 23.2473 L 524.275 23.1539"/><path d = "M 58.4814 115.334 L 58.8247 109.399 L 59.2005 103.5 L 59.6087 97.6385 L 60.049 91.8156 L 60.5212 86.0332"/><path d = "M 64.3118 73.8727 L 63.8809 74.5118 L 63.4744 75.1699 L 63.0936 75.8462 L 62.7396 76.5399 L 62.4132 77.25 L 62.1148 77.9755 L 61.8341 78.7463 L 61.584 79.5309 L 61.3644 80.3274 L 61.1742 81.1342 L 61.0185 81.9143 L 60.8865 82.701 L 60.7757 83.4934 L 60.6778 84.338 L 60.6212 84.9027 L 60.5212 86.0332"/><path d = "M 525.671 32.2429 L 526.061 34.5237 L 526.44 36.9573"/><path d = "M 524.411 37.4067 L 526.44 36.9573"/><path d = "M 65.8219 71.9645 L 66.412 71.3091 L 66.819 70.8838 L 67.2388 70.4752 L 67.5067 70.2356 L 67.8751 69.9412"/><path d = "M 68.343468 69.623596 A 7.786499 7.786499 0 0 0 67.875084 69.94104"/><path d = "M 68.3433 69.6234 L 69.0075 69.2213 L 69.6738 68.86 L 70.0075 68.6952 L 70.3413 68.5414 L 70.7868 68.3538 L 71.2324 68.1865 L 71.6782 68.0398 L 72.2352 67.8859 L 72.7919 67.7653 L 73.3481 67.6782 L 73.9035 67.6248 L 74.4582 67.6051 L 75.0119 67.619 L 75.5064 67.6597 L 75.9999 67.7267 L 76.4924 67.8198 L 77.0603 67.9594 L 77.6269 68.1323 L 78.1925 68.3381 L 78.7572 68.5758 L 79.3579 68.8632 L 79.9577 69.1844 L 80.5567 69.5388 L 81.1552 69.9248 L 81.5429 70.1914 L 81.9306 70.4706 L 82.3399 70.7788 L 82.7494 71.1001 L 83.5463 71.7621"/><path d = "M 484.702 57.5726 L 484.702 57.5721"/><path d = "M 483.544 57.9717 L 483.757 57.955 L 483.965 57.9149 L 484.165 57.8541 L 484.393 57.7572 L 484.608 57.6359 L 484.702 57.5721"/><path d = "M 483.544 57.9722 L 483.757 57.9554 L 483.965 57.9154 L 484.165 57.8546 L 484.393 57.7577 L 484.608 57.6364 L 484.702 57.5726"/><path d = "M 58.389999 120.21054 A 24.397705 24.397705 0 0 0 58.409859 120.52344"/><path d = "M 64.3119 73.8726 L 64.7375 73.2898 L 65.1854 72.7186 L 65.6501 72.1626 L 65.808 71.9803"/><path d = "M 65.8219 71.9645 L 65.808 71.9803"/><path d = "M 58.4814 115.334 L 58.4226 116.412"/><path d = "M 58.39 120.211 L 58.364 119.641 L 58.3506 119.071 L 58.3507 118.31 L 58.3695 117.547 L 58.4226 116.412"/><path d = "M 59.8368 120.377 L 62.0877 120.136 L 63.8214 119.934 L 64.8107 119.808"/><path d = "M 64.8107 119.808 L 66.9601 119.506 L 69.0905 119.176"/><path d = "M 69.0905 119.176 L 70.5119 118.951"/><path d = "M 59.0662 125.367 L 58.9733 124.93 L 58.9198 124.639 L 58.827 124.058 L 58.7642 123.616 L 58.6412 122.695 L 58.5147 121.663 L 58.4588 121.12 L 58.4098 120.523"/><path d = "M 484.195 68.3715 L 484.422 68.3422 L 484.64 68.2816 L 484.847 68.1932 L 485.08 68.0562 L 485.294 67.8895 L 485.387 67.8035"/><path d = "M 482.001 32.5454 L 482.123 32.5864 L 482.269 32.609 L 482.415 32.5992 L 482.514 32.5774 L 482.719 32.5035 L 482.931 32.3955 L 483.024 32.3395"/><path d = "M 482.408 29.2322 L 482.408 29.2317"/><path d = "M 482.426 27.7155 L 138.168 104.13"/><path d = "M 482.788 29.1475 L 482.408 29.2317"/><path d = "M 483.024 32.3395 L 483.032 32.21 L 483.059 32.0813 L 483.105 31.9548 L 483.151 31.8621 L 483.208 31.7715 L 483.349 31.5986 L 483.426 31.5229"/><path d = "M 485.046 30.9957 L 485.045 30.995"/><path d = "M 485.046 30.9957 L 485.525 30.8899"/><path d = "M 525.322 57.9929 L 524.876 48.0829"/><path d = "M 502.233 63.1196 L 502.729 63.0011 L 505.387 62.4005 L 508.106 61.7949 L 514.631 60.3501 L 525.322 57.9929"/><path d = "M 484.63492 30.915009 A 3.2059326 3.2059326 0 0 0 484.36322 30.997803"/><path d = "M 500.664 22.9861 L 523.757 17.859"/><path d = "M 500.664 22.9858 L 482.493 27.0156"/><path d = "M 482.493 27.0156 L 138.583 103.295"/><path d = "M 83.5463 71.7621 L 89.4679 76.8579 L 93.8324 80.5953 L 97.3808 83.5997 L 100.102 85.8732"/><path d = "M 100.72202 86.387329 A 467.35547 467.35547 0 0 0 101.93808 87.389862"/><path d = "M 113.842 102.691 L 113.86 102.695"/><path d = "M 119.29484 100.63092 A 156.36996 156.36996 0 0 0 121.01144 101.79279"/></g><g fill = "none" stroke = "rgb(255, 0, 0)" stroke-width = "0.7" stroke-linecap = "butt" stroke-linejoin = "miter"><path d = "M 99.232 286.972 L 99.3108 287.013 L 100.324 287.534 L 101.519 288.122 L 102.396 288.533 L 103.283 288.931 L 104.109 289.287 L 105.36 289.8 L 106.608 290.282 L 107.847 290.734 L 109.324 291.24 L 110.808 291.715 L 112.319 292.166 L 113.668 292.543 L 115.055 292.907 L 116.475 293.256 L 117.983 293.601 L 119.771 293.977 L 121.577 294.323 L 123.4 294.639 L 125.241 294.925 L 127.098 295.18 L 128.972 295.405 L 130.863 295.598 L 132.77 295.759 L 134.695 295.887 L 136.636 295.981 L 138.5 296.038 L 140.379 296.062 L 142.273 296.051 L 144.182 296.005 L 146.107 295.922 L 148.048 295.802 L 150.005 295.642"/><path d = "M 150.005 295.642 L 148.65 290.465 L 147.296 285.234 L 145.947 279.983 L 144.596 274.688 L 141.907 264.051 L 140.563 258.707 L 138.765 251.589 L 136.498 242.721"/><path d = "M 136.49854 242.72095 A 2370.0415 2370.0415 0 0 0 135.91943 240.47632"/><path d = "M 135.91943 240.47658 A 1102.6821 1102.6821 0 0 0 135.42651 238.58113"/><path d = "M 135.42651 238.58118 A 80.98999 80.98999 0 0 0 138.22559 237.94858"/><path d = "M 138.226 237.948 L 139.674 237.609 L 141.123 237.299 L 142.569 237.017 L 144.008 236.764 L 145.263 236.567 L 146.507 236.393 L 147.739 236.245"/><path d = "M 147.739 236.245 L 148.874 236.113 L 151.088 235.832"/><path d = "M 151.088 235.832 L 151.815 235.736"/><path d = "M 151.815 235.736 L 151.937 235.72"/><path d = "M 151.937 235.72 L 153.784 235.475"/><path d = "M 153.784 235.475 L 160.739 234.555 L 491.835 190.774"/><path d = "M 491.835 190.774 L 493.371 190.571"/><path d = "M 493.371 190.571 L 493.575 190.549 L 493.779 190.538 L 494.048 190.538 L 494.369 190.563 L 494.675 190.614"/><path d = "M 494.675 190.614 L 494.695 190.618"/><path d = "M 494.695 190.618 L 494.851 190.645 L 495.103 190.663 L 495.37 190.658 L 495.555 190.64"/><path d = "M 495.555 190.64 L 495.578 190.637"/><path d = "M 495.578 190.637 L 496.037 190.577"/><path d = "M 496.037 190.577 L 497.545 190.377"/><path d = "M 497.545 190.377 L 498.046 190.322 L 498.553 190.287 L 499.065 190.274 L 499.71 190.288 L 500.359 190.339 L 501.007 190.426 L 501.653 190.55 L 502.29 190.713 L 502.847 190.889 L 503.392 191.094 L 503.923 191.33 L 504.436 191.593 L 504.913 191.874 L 505.367 192.179 L 505.799 192.506 L 506.204 192.855"/><path d = "M 507.47244 194.32076 A 10.144043 8.5297852 -8.5741463 0 0 506.20493 192.85558"/><path d = "M 507.472 194.321 L 511.65 200.528 L 513.521 203.297 L 516.017 206.968 L 518.393 210.429 L 521.573 215.009 L 524.714 219.464 L 527.856 223.855 L 529.648 226.33"/><path d = "M 529.648 226.33 L 530.07 226.885 L 530.337 227.208 L 530.599 227.5 L 530.794 227.698"/><path d = "M 530.794 227.698 L 530.923 227.831 L 531.071 228.001 L 531.36 228.358 L 531.534 228.582 L 531.92 229.082 L 532.246 229.507"/><path d = "M 534.1618 232.05214 A 351.75073 351.75073 0 0 0 532.24585 229.50662"/><path d = "M 534.162 232.053 L 534.33 232.307 L 534.413 232.454 L 534.564 232.773 L 534.684 233.096 L 534.745 233.325 L 534.778 233.529"/><path d = "M 534.778 233.529 L 534.779 233.536"/><path d = "M 534.779 233.536 L 534.784 233.651 L 534.777 233.747 L 534.757 233.822 L 534.725 233.877 L 534.684 233.909"/><path d = "M 88.227341 286.42868 A 30.966309 30.966309 0 0 0 87.219681 288.36859"/><path d = "M 87.22 288.369 L 86.8584 289.166 L 86.5298 289.958 L 86.2359 290.744 L 86.0852 291.186 L 85.9461 291.625 L 85.824 292.043 L 85.7134 292.458 L 85.5816 293.015 L 85.4717 293.563 L 85.3843 294.101 L 85.3094 294.733 L 85.2678 295.348 L 85.26 295.944 L 85.2859 296.52 L 85.346 297.074"/><path d = "M 96.3296 325.788 L 96.3399 325.78 L 96.3682 325.735 L 96.3836 325.665 L 96.3872 325.566 L 96.3833 325.489 L 96.3643 325.309 L 96.2913 324.849 L 96.208 324.331"/><path d = "M 96.113434 323.46875 A 13.016113 13.016113 0 0 0 96.208183 324.33081"/><path d = "M 96.106445 323.2991 A 12.220215 12.220215 0 0 0 96.113388 323.46875"/><path d = "M 96.100952 322.87082 A 12.344238 12.344238 0 0 0 96.106705 323.29907"/><path d = "M 96.1006 322.871 L 96.1028 322.37 L 96.1236 318.584 L 96.1343 312.863 L 96.1187 306.669 L 96.0889 302.13 L 96.0691 299.733"/><path d = "M 96.0691 299.733 L 96.0752 299.148 L 96.0994 298.56 L 96.1421 297.962 L 96.2041 297.36 L 96.2598 296.937 L 96.3274 296.51 L 96.4041 296.097 L 96.4944 295.679"/><path d = "M 96.4944 295.679 L 96.6258 295.151 L 96.8103 294.461 L 96.897 294.118 L 97.0027 293.621 L 97.0425 293.372 L 97.072 293.124 L 97.0904 292.875 L 97.0979 292.625 L 97.095 292.373 L 97.083 292.12 L 97.0357 291.607 L 96.9908 291.251 L 96.8877 290.531"/><path d = "M 96.8877 290.531 L 96.856 290.313"/><path d = "M 96.855865 290.31277 A 538.3042 538.3042 0 0 0 96.098907 285.30157"/><path d = "M 96.098824 285.30154 A 156.91626 156.91626 0 0 0 99.228012 286.97043"/><path d = "M 99.2281 286.97 L 99.232 286.972"/></g><g fill = "none" stroke = "rgb(255, 0, 0)" stroke-width = "0.35" stroke-linecap = "butt" stroke-linejoin = "miter"><path d = "M 534.779 233.536 L 524.94 235.278"/><path d = "M 534.779 233.536 L 534.784 233.645 L 534.778 233.739 L 534.764 233.802 L 534.742 233.852 L 534.716 233.886 L 534.684 233.909"/><path d = "M 534.656 233.918 L 534.654 233.918"/><path d = "M 534.778 233.529 L 524.94 235.27"/><path d = "M 534.778 233.529 L 534.779 233.536"/><path d = "M 534.162 232.052 L 524.577 233.749"/><path d = "M 524.578 233.749 L 524.409 233.779"/><path d = "M 534.778 233.529 L 534.759 233.393 L 534.727 233.248 L 534.632 232.943 L 534.496 232.62 L 534.335 232.316 L 534.162 232.053"/><path d = "M 524.296 231.44 L 525.274 231.317 L 526.246 231.157 L 527.21 230.964 L 527.929 230.799 L 528.644 230.617 L 529.591 230.353 L 530.532 230.068 L 531.469 229.766 L 532.246 229.507"/><path d = "M 534.16187 232.05211 A 351.76001 351.76001 0 0 0 532.24591 229.50658"/><path d = "M 524.409 233.779 L 524.409 233.779"/><path d = "M 524.296 231.441 L 523.881 231.467 L 523.462 231.456 L 523.046 231.407 L 522.84 231.367 L 522.637 231.318"/><path d = "M 524.23 230.744 L 523.929 230.762 L 523.629 230.754 L 523.331 230.718 L 523.039 230.656"/><path d = "M 524.296 231.441 L 524.238 230.872 L 524.231 230.779 L 524.229 230.744"/><path d = "M 523.05658 230.6485 A 3.2849121 3.2849121 0 0 0 524.22955 230.73477"/><path d = "M 524.229 230.735 L 524.229 230.744"/><path d = "M 524.229 230.735 L 524.227 230.687 L 524.218 230.613 L 524.181 230.334 L 524.18 230.333"/><path d = "M 523.57617 230.28133 A 1.7631836 1.7631836 0 0 0 524.1803 230.33311"/><path d = "M 523.057 230.648 L 522.775 230.559 L 522.506 230.442 L 522.253 230.297 L 522.022 230.126 L 521.853 229.969 L 521.703 229.795"/><path d = "M 522.852 229.811 L 522.805 229.837 L 522.684 229.87 L 522.569 229.885 L 522.448 229.889 L 522.191 229.876 L 521.999 229.853 L 521.703 229.795"/><path d = "M 523.576 230.281 L 523.456 230.244 L 523.341 230.197 L 523.198 230.122 L 523.068 230.033 L 522.954 229.931 L 522.852 229.811"/><path d = "M 524.18024 230.33327 A 1.8422852 1.8422852 0 0 0 524.34967 230.31097"/><path d = "M 524.347 230.298 L 524.093 230.325 L 523.834 230.316 L 523.706 230.297 L 523.581 230.269"/><path d = "M 521.703 229.795 L 520.476 228.107 L 519.252 226.411 L 516.804 222.986 L 514.352 219.517 L 511.908 216.02 L 509.46 212.48 L 507.008 208.898 L 504.563 205.294 L 502.113 201.658 L 497.82 195.258 L 497.178 194.301"/><path d = "M 522.852 229.811 L 520.359 226.417 L 517.855 222.973 L 515.356 219.491 L 512.87 215.986 L 510.368 212.414 L 507.879 208.818 L 505.398 205.194 L 503.738 202.752 L 500.429 197.854 L 497.917 194.128"/><path d = "M 523.581 230.269 L 523.462 230.232 L 523.348 230.186 L 523.206 230.111 L 523.077 230.022 L 522.964 229.922 L 522.862 229.803"/><path d = "M 497.178 194.301 L 496.698 193.589"/><path d = "M 497.917 194.128 L 497.434 193.413"/><path d = "M 522.862 229.803 L 520.37 226.409 L 517.867 222.964 L 515.369 219.483 L 512.884 215.977 L 511.007 213.3 L 509.138 210.61 L 507.274 207.905 L 505.414 205.185 L 503.755 202.743 L 500.447 197.845 L 497.935 194.119"/><path d = "M 526.764 229.489 L 527.132 229.236 L 527.478 228.961 L 527.802 228.668 L 528.105 228.36 L 528.392 228.041 L 528.665 227.711 L 529.05 227.202 L 529.415 226.68 L 529.648 226.33"/><path d = "M 507.472 194.321 L 511.901 200.9 L 514.119 204.18 L 516.338 207.438 L 518.002 209.862 L 519.668 212.273 L 521.889 215.459 L 524.662 219.39 L 527.442 223.28 L 529.648 226.33"/><path d = "M 507.47238 194.32085 A 10.127441 8.5200195 -8.4492617 0 0 506.2049 192.85573"/><path d = "M 497.43372 193.41309 A 1383.3501 1383.3501 0 0 0 495.55518 190.64026"/><path d = "M 496.69849 193.58856 A 1489.5692 1489.5692 0 0 0 494.69519 190.61829"/><path d = "M 494.695 190.618 L 494.851 190.645 L 495.103 190.663 L 495.37 190.658 L 495.555 190.64"/><path d = "M 497.935 194.118 L 497.452 193.404"/><path d = "M 506.205 192.856 L 506.204 192.855"/><path d = "M 497.45178 193.40356 A 1400.2833 1400.2833 0 0 0 495.57813 190.63721"/><path d = "M 495.555 190.64 L 495.578 190.637"/><path d = "M 506.204 192.855 L 505.799 192.506 L 505.367 192.179 L 504.913 191.874 L 504.436 191.593 L 503.923 191.33 L 503.392 191.094 L 502.847 190.889 L 502.29 190.713 L 501.653 190.55 L 501.007 190.426 L 500.359 190.339 L 499.71 190.288 L 499.065 190.274 L 498.553 190.287 L 498.046 190.322 L 497.545 190.377"/><path d = "M 497.545 190.377 L 496.037 190.577"/><path d = "M 496.037 190.577 L 495.578 190.637"/><path d = "M 496.103 194.617 L 495.623 193.904"/><path d = "M 497.158 194.301 L 496.68 193.588"/><path d = "M 520.778 230.117 L 518.313 226.736 L 515.839 223.304 L 513.374 219.843 L 510.916 216.353 L 508.447 212.808 L 505.987 209.236 L 503.518 205.617 L 501.876 203.193 L 498.597 198.327 L 496.103 194.617"/><path d = "M 521.667 229.791 L 520.441 228.102 L 519.218 226.406 L 516.772 222.982 L 514.322 219.513 L 511.879 216.017 L 509.433 212.477 L 506.983 208.896 L 504.539 205.292 L 502.091 201.656 L 497.801 195.258 L 497.158 194.301"/><path d = "M 520.778 230.117 L 520.841 230.008 L 520.882 229.953 L 520.929 229.906 L 520.982 229.867 L 521.043 229.836 L 521.133 229.807 L 521.273 229.783 L 521.419 229.776 L 521.667 229.791"/><path d = "M 151.088 235.832 L 148.874 236.113 L 147.739 236.245"/><path d = "M 138.226 237.948 L 139.674 237.609 L 141.123 237.299 L 142.569 237.017 L 144.008 236.764 L 145.263 236.567 L 146.507 236.393 L 147.739 236.245"/><path d = "M 135.42662 238.58107 A 80.989258 80.989258 0 0 0 138.22571 237.94846"/><path d = "M 135.91943 240.47658 A 1102.6821 1102.6821 0 0 0 135.42651 238.58113"/><path d = "M 96.098824 285.30154 A 156.91626 156.91626 0 0 0 99.228012 286.97043"/><path d = "M 96.855865 290.31281 A 538.17371 538.17371 0 0 0 96.098907 285.30161"/><path d = "M 96.4944 295.679 L 96.6258 295.151 L 96.8103 294.461 L 96.897 294.118 L 97.0027 293.621 L 97.0425 293.372 L 97.072 293.124 L 97.0904 292.875 L 97.0979 292.625 L 97.095 292.373 L 97.083 292.12 L 97.0357 291.607 L 96.9908 291.251 L 96.8877 290.531"/><path d = "M 96.856 290.313 L 96.8877 290.531"/><path d = "M 96.4944 295.679 L 96.4041 296.097 L 96.3274 296.51 L 96.2598 296.937 L 96.2041 297.36 L 96.1421 297.962 L 96.0994 298.56 L 96.0752 299.148 L 96.0691 299.733"/><path d = "M 96.0691 299.733 L 96.0889 302.13 L 96.1187 306.669 L 96.1343 312.863 L 96.1236 318.584 L 96.1028 322.37 L 96.1006 322.871"/><path d = "M 96.100708 322.87082 A 12.344238 12.344238 0 0 0 96.106461 323.29907"/><path d = "M 96.106689 323.29907 A 12.219482 12.219482 0 0 0 96.113632 323.46875"/><path d = "M 96.113197 323.46869 A 13.016846 13.016846 0 0 0 96.207947 324.33075"/><path d = "M 96.208 324.331 L 96.2918 324.851 L 96.3648 325.313 L 96.3836 325.491 L 96.3872 325.568 L 96.3836 325.665 L 96.3675 325.737 L 96.3382 325.782 L 96.3277 325.789"/><path d = "M 85.346 297.074 L 85.2859 296.52 L 85.26 295.944 L 85.2678 295.348 L 85.3094 294.733 L 85.3843 294.101 L 85.4717 293.563 L 85.5816 293.015 L 85.7134 292.458 L 85.824 292.043 L 85.9461 291.625 L 86.0852 291.186 L 86.2359 290.744 L 86.5298 289.958 L 86.8584 289.166 L 87.22 288.369"/><path d = "M 524.35 230.311 L 525.24 230.152"/><path d = "M 496.67981 193.58844 A 1514.4404 1514.4404 0 0 0 494.67456 190.61377"/><path d = "M 495.62231 193.90356 A 1673.0145 1673.0145 0 0 0 493.37134 190.57062"/><path d = "M 494.675 190.614 L 494.369 190.563 L 494.048 190.538 L 493.779 190.538 L 493.575 190.549 L 493.371 190.571"/><path d = "M 493.371 190.571 L 491.835 190.774"/><path d = "M 491.835 190.774 L 164.136 234.106 L 153.784 235.475"/><path d = "M 153.784 235.475 L 151.937 235.72"/><path d = "M 151.937 235.72 L 151.815 235.736"/><path d = "M 151.815 235.736 L 151.088 235.832"/><path d = "M 158.228 298.622 L 157.069 298.82 L 155.909 299.005 L 154.707 299.183 L 153.308 299.37 L 151.912 299.539 L 150.094 299.729 L 148.328 299.883 L 146.868 299.988 L 145.414 300.072 L 144.608 300.11 L 143.122 300.164 L 141.642 300.198 L 139.874 300.212 L 138.21 300.199 L 136.556 300.162 L 134.912 300.101 L 133.276 300.016 L 131.617 299.905 L 129.969 299.77 L 128.879 299.668 L 126.968 299.462 L 125.921 299.335 L 123.991 299.073 L 123.213 298.958 L 121.564 298.693 L 120.167 298.448 L 118.783 298.184 L 116.995 297.814 L 115.995 297.591 L 115.004 297.358 L 113.67 297.026 L 112.357 296.677 L 111.064 296.311 L 109.521 295.843 L 108.009 295.348 L 107.113 295.037 L 106.227 294.715 L 105.042 294.261 L 104.193 293.919 L 103.492 293.624 L 102.803 293.324 L 101.907 292.915 L 100.946 292.453 L 100.004 291.975"/><path d = "M 136.49854 242.72095 A 2370.0415 2370.0415 0 0 0 135.91943 240.47632"/><path d = "M 150.005 295.642 L 148.65 290.465 L 147.296 285.234 L 145.947 279.983 L 144.596 274.688 L 141.907 264.051 L 140.563 258.707 L 138.765 251.589 L 136.498 242.721"/><path d = "M 150.005 295.642 L 148.048 295.802 L 146.107 295.922 L 144.182 296.005 L 142.273 296.051 L 140.379 296.062 L 138.5 296.038 L 136.636 295.981 L 134.695 295.887 L 132.77 295.759 L 130.863 295.598 L 128.972 295.405 L 127.098 295.18 L 125.241 294.925 L 123.4 294.639 L 121.577 294.323 L 119.771 293.977 L 117.983 293.601 L 116.475 293.256 L 115.055 292.907 L 113.668 292.543 L 112.319 292.166 L 110.808 291.715 L 109.324 291.24 L 107.847 290.734 L 106.608 290.282 L 105.36 289.8 L 104.109 289.287 L 103.283 288.931 L 102.396 288.533 L 101.519 288.122 L 100.324 287.534 L 99.3108 287.013 L 99.232 286.972"/><path d = "M 99.232 286.972 L 99.2281 286.97"/><path d = "M 158.147 300.196 L 156.247 300.514 L 154.342 300.799 L 152.433 301.055 L 150.521 301.285 L 149.037 301.448 L 147.552 301.598 L 146.077 301.737 L 144.602 301.865 L 141.657 302.094 L 138.722 302.288 L 135.802 302.447 L 133.618 302.543 L 131.449 302.615 L 129.292 302.661 L 127.105 302.677 L 124.936 302.659 L 123.86 302.636 L 122.789 302.602 L 121.194 302.531 L 119.614 302.434 L 118.05 302.309 L 116.504 302.154 L 115.089 301.983 L 113.692 301.785 L 112.315 301.557 L 110.96 301.299 L 109.627 301.011 L 108.32 300.692 L 107.087 300.354 L 105.881 299.986 L 104.703 299.587 L 104.126 299.377 L 103.556 299.158 L 102.7 298.81 L 101.863 298.443 L 101.046 298.059 L 100.457 297.764"/><path d = "M 158.147 300.196 L 158.134 299.974 L 158.136 299.508 L 158.151 299.268 L 158.203 298.788 L 158.228 298.622"/><path d = "M 100.504 321.956 L 102.247 321.036 L 103.999 320.129 L 105.757 319.233 L 107.519 318.347 L 111.054 316.599 L 114.256 315.045 L 117.252 313.617 L 120.261 312.215 L 121.772 311.526 L 123.286 310.847 L 125.688 309.797 L 127.975 308.833 L 129.124 308.363 L 130.277 307.901 L 132.015 307.227 L 133.762 306.575 L 135.52 305.946 L 137.287 305.344 L 139.3 304.693 L 141.324 304.077 L 143.359 303.496 L 145.311 302.974 L 147.269 302.484 L 149.235 302.023 L 151.207 301.589 L 153.185 301.181 L 155.168 300.795 L 156.658 300.517 L 158.152 300.249"/><path d = "M 88.227745 286.42877 A 30.965576 30.965576 0 0 0 87.220093 288.36865"/><path d = "M 494.675 190.614 L 494.695 190.618"/><path d = "M 525.419 230.106 L 525.703 230.012 L 525.98 229.902 L 526.383 229.711 L 526.764 229.489"/><path d = "M 524.347 230.298 L 525.419 230.106"/><path d = "M 521.667 229.791 L 521.703 229.795"/><path d = "M 525.23993 230.15155 A 3.784668 3.784668 0 0 0 525.4187 230.10548"/><path d = "M 524.18085 230.33324 A 5.0200195 5.0200195 0 0 0 524.35071 230.31491"/><path d = "M 524.229 230.744 L 524.707 230.686 L 525.221 230.591 L 525.71 230.472 L 526.217 230.318 L 526.688 230.149 L 527.153 229.957 L 527.611 229.743 L 528.198 229.435 L 528.361 229.343 L 528.963 228.979 L 529.072 228.91 L 529.671 228.51 L 530.369 228.014 L 530.794 227.698"/><path d = "M 529.648 226.33 L 530.054 226.864 L 530.257 227.114 L 530.461 227.349 L 530.628 227.531 L 530.794 227.698"/><path d = "M 523.039 230.656 L 522.753 230.565 L 522.48 230.447 L 522.224 230.3 L 521.99 230.126 L 521.819 229.967 L 521.667 229.791"/><path d = "M 522.637 231.318 L 522.284 231.206 L 521.95 231.065 L 521.639 230.896 L 521.356 230.702 L 521.14 230.52 L 520.947 230.324 L 520.778 230.117"/><path d = "M 524.409 233.779 L 158.228 298.622"/><path d = "M 530.794 227.698 L 530.966 227.879 L 531.231 228.195 L 531.661 228.746 L 531.948 229.119 L 532.246 229.507"/><path d = "M 524.94 235.27 L 158.147 300.196"/><path d = "M 524.94 235.278 L 158.152 300.249"/><path d = "M 534.655 233.918 L 524.757 235.671"/><path d = "M 100.36813 323.58237 A 164.53833 164.53833 0 0 0 96.327614 325.78876"/><path d = "M 524.757 235.671 L 158.223 300.598"/></g><g fill = "none" stroke = "rgb(255, 0, 0)" stroke-width = "0.7" stroke-linecap = "butt" stroke-linejoin = "miter"><path d = "M 100.075 292.012 L 100.004 291.975"/><path d = "M 100.004 291.975 L 99.6692 291.8"/><path d = "M 96.851761 290.28415 A 150.17505 150.17505 0 0 0 99.669151 291.80026"/><path d = "M 96.851654 290.28418 A 529.95129 529.95129 0 0 0 95.893585 283.99646"/><path d = "M 95.8936 283.996 L 95.2803 280.228 L 94.6372 276.472 L 93.9646 272.738 L 93.5195 270.363 L 93.0633 268.001"/><path d = "M 93.0635 268.001 L 92.2683 264.044 L 91.4461 260.134 L 90.6004 256.281 L 89.7593 252.594 L 88.8741 248.848"/><path d = "M 88.874176 248.84769 A 530.57239 530.57239 0 0 0 87.692719 244.03241"/><path d = "M 86.998146 239.28337 A 57.638184 16.921387 -312.78763 0 0 87.692703 244.0325"/><path d = "M 88.322487 234.20038 A 81.471191 20.967773 -315.16989 0 0 86.997986 239.28323"/><path d = "M 88.3225 234.201 L 88.3574 234.153"/><path d = "M 92.063805 231.92949 A 44.864502 15.525879 -314.62286 0 0 88.357483 234.15344"/><path d = "M 92.0638 231.93 L 92.1326 231.916"/><path d = "M 95.587189 231.80836 A 27.918701 11.984863 -317.57098 0 0 92.132896 231.91576"/><path d = "M 101.9491 233.52165 A 20.678955 9.451416 -322.82327 0 0 95.586914 231.80812"/><path d = "M 101.949 233.522 L 103.905 234.311 L 105.874 235.081 L 107.857 235.829"/><path d = "M 107.857 235.829 L 109.85 236.552 L 111.861 237.248 L 113.892 237.915 L 114.915 238.237 L 115.943 238.551 L 116.977 238.855 L 118.016 239.151 L 119.525 239.559 L 121.047 239.947 L 122.581 240.311"/><path d = "M 122.581 240.311 L 122.755 240.346 L 122.933 240.37 L 123.199 240.387 L 123.501 240.385 L 123.923 240.355 L 124.381 240.301 L 124.877 240.227 L 125.957 240.05 L 126.731 239.93 L 127.127 239.876"/><path d = "M 127.74243 239.80038 A 31.841553 31.841553 0 0 0 127.12713 239.87566"/><path d = "M 127.742 239.8 L 129.328 239.607 L 130.913 239.385 L 132.495 239.133 L 134.071 238.85 L 135.464 238.573 L 136.849 238.272 L 138.226 237.948"/><path d = "M 140.0927 237.51636 A 77.009766 77.009766 0 0 0 138.22557 237.9483"/><path d = "M 140.83923 240.42413 A 1894.7354 1894.7354 0 0 0 140.09277 237.51645"/><path d = "M 140.839 240.424 L 141.152 241.646"/><path d = "M 141.152 241.646 L 144.833 256.086 L 146.31 261.91 L 147.788 267.713 L 150.007 276.337 L 152.241 284.906 L 153.729 290.541 L 155.992 298.993"/><path d = "M 147.88019 299.9173 A 104.63892 104.63892 0 0 0 150.4391 299.6954"/><path d = "M 143.944 300.137 L 143.613 300.148"/><path d = "M 107.073 295.023 L 106.986 294.991"/></g><g fill = "none" stroke = "rgb(255, 0, 0)" stroke-width = "0.35" stroke-linecap = "butt" stroke-linejoin = "miter"><path d = "M 127.127 239.876 L 126.731 239.93 L 125.957 240.05 L 124.877 240.227 L 124.381 240.301 L 123.923 240.355 L 123.501 240.385 L 123.199 240.387 L 122.933 240.37 L 122.755 240.346 L 122.581 240.311"/><path d = "M 107.857 235.829 L 109.85 236.552 L 111.861 237.248 L 113.892 237.915 L 114.915 238.237 L 115.943 238.551 L 116.977 238.855 L 118.016 239.151 L 119.525 239.559 L 121.047 239.947 L 122.581 240.311"/><path d = "M 95.586823 231.80814 A 27.967285 11.99707 -317.55286 0 0 92.132523 231.91551"/><path d = "M 92.1326 231.916 L 92.0638 231.93"/><path d = "M 92.063644 231.92949 A 44.828613 15.519531 -314.62479 0 0 88.35733 234.15343"/><path d = "M 100.075 292.012 L 100.004 291.975"/><path d = "M 155.992 298.993 L 154.834 299.165 L 153.678 299.323 L 152.518 299.468 L 151.362 299.6 L 149.813 299.755 L 148.196 299.893 L 147.169 299.968 L 145.127 300.086 L 143.106 300.165 L 141.101 300.205 L 139.113 300.209 L 137.141 300.178 L 135.186 300.113 L 133.248 300.014 L 131.944 299.929 L 130.648 299.829 L 128.646 299.645 L 126.84 299.447 L 125.671 299.303 L 123.77 299.041 L 123.501 299.001 L 121.493 298.681 L 120.495 298.507 L 119.504 298.324 L 117.968 298.02 L 116.039 297.601 L 114.517 297.24 L 113.615 297.012 L 112.722 296.777 L 111.543 296.45 L 110.38 296.108 L 109.232 295.751 L 107.991 295.342 L 107.089 295.028 L 106.196 294.703 L 104.875 294.195 L 104.656 294.107 L 103.331 293.555 L 102.593 293.229 L 101.864 292.895 L 100.962 292.461 L 100.075 292.012"/><path d = "M 155.992 298.993 L 153.729 290.541 L 152.241 284.906 L 150.007 276.337 L 147.788 267.713 L 146.31 261.91 L 144.833 256.086 L 141.152 241.646"/><path d = "M 141.152 241.646 L 140.839 240.424"/><path d = "M 88.322586 234.20049 A 81.376709 20.955566 -315.16757 0 0 86.998062 239.28336"/><path d = "M 86.998161 239.28334 A 57.121826 16.825928 -312.72214 0 0 87.692764 244.03244"/><path d = "M 88.873932 248.84775 A 530.52209 530.52209 0 0 0 87.692535 244.03247"/><path d = "M 93.0635 268.001 L 92.2683 264.044 L 91.4461 260.134 L 90.6004 256.281 L 89.7593 252.594 L 88.8741 248.848"/><path d = "M 95.8936 283.996 L 95.2803 280.228 L 94.6372 276.472 L 93.9646 272.738 L 93.5195 270.363 L 93.0633 268.001"/><path d = "M 96.851593 290.28418 A 529.87317 529.87317 0 0 0 95.893585 283.99649"/><path d = "M 96.851761 290.28415 A 150.17505 150.17505 0 0 0 99.669151 291.80026"/><path d = "M 100.004 291.975 L 99.6692 291.8"/><path d = "M 88.3574 234.153 L 88.3225 234.201"/><path d = "M 101.949 233.522 L 103.905 234.311 L 105.874 235.081 L 107.857 235.829"/><path d = "M 101.94896 233.52184 A 20.664551 9.4438477 -322.83972 0 0 95.586784 231.80823"/><path d = "M 140.83923 240.42413 A 1894.7354 1894.7354 0 0 0 140.09277 237.51645"/><path d = "M 140.09276 237.51643 A 77.008545 77.008545 0 0 0 138.22563 237.94839"/><path d = "M 127.742 239.8 L 129.328 239.607 L 130.913 239.385 L 132.495 239.133 L 134.071 238.85 L 135.464 238.573 L 136.849 238.272 L 138.226 237.948"/><path d = "M 127.74249 239.80014 A 31.841064 31.841064 0 0 0 127.12718 239.87541"/></g><g fill = "none" stroke = "rgb(126, 162, 151)" stroke-width = "0.35" stroke-linecap = "butt" stroke-linejoin = "miter"><path d = "M 568.834 227.504 L 568.835 227.629 L 568.828 227.726 L 568.819 227.771 L 568.793 227.839 L 568.77 227.866 L 568.742 227.878"/><path d = "M 544.229 231.863 L 568.834 227.503"/><path d = "M 568.834 227.503 L 568.834 227.496"/><path d = "M 544.229 231.855 L 568.834 227.496"/><path d = "M 568.834 227.496 L 568.813 227.28 L 568.776 227.058 L 568.74 226.89 L 568.674 226.637 L 568.597 226.393 L 568.491 226.114 L 568.434 225.982"/><path d = "M 568.433 225.981 L 543.828 230.34"/><path d = "M 544.229 231.856 L 524.94 235.27"/><path d = "M 565.851 222.55 L 567.925 225.299 L 568.301 225.798 L 568.433 225.981"/><path d = "M 541.248 226.909 L 542.785 228.932 L 543.534 229.932 L 543.828 230.34"/><path d = "M 524.578 233.749 L 524.409 233.779"/><path d = "M 543.829 230.341 L 542.46 230.585 L 540.079 231.006 L 524.577 233.749"/><path d = "M 544.229 231.863 L 524.94 235.278"/><path d = "M 563.221 219.066 L 565.851 222.55"/><path d = "M 538.616 223.425 L 539.488 224.59 L 541.247 226.91"/><path d = "M 524.94 235.27 L 158.147 300.196"/><path d = "M 158.147 300.196 L 158.134 299.974 L 158.136 299.508 L 158.151 299.268 L 158.203 298.788 L 158.228 298.622"/><path d = "M 524.409 233.779 L 158.228 298.622"/><path d = "M 524.409 233.779 L 524.409 233.779"/><path d = "M 84.856 267.34 L 81.6216 269.305 L 78.1836 271.393 L 75.4412 273.036 L 73.4258 274.221 L 71.0445 275.589 L 69.457 276.478 L 68.4073 277.054 L 66.8848 277.87 L 65.3718 278.658 L 63.8697 279.414"/><path d = "M 82.9968 333.224 L 82.7107 332.892 L 82.4531 332.535 L 82.2244 332.155 L 82.1004 331.915 L 81.9488 331.581 L 81.8555 331.349 L 81.6851 330.877"/><path d = "M 81.6851 330.877 L 81.1526 329.346"/><path d = "M 63.8697 279.414 L 64.4602 280.79 L 65.0257 282.158 L 65.5642 283.514 L 66.0039 284.663 L 66.4212 285.792 L 67.0095 287.456 L 67.5344 289.019 L 68.0178 290.523 L 68.668 292.594 L 69.3953 294.886 L 70.1172 297.13 L 70.9922 299.81 L 71.8557 302.419 L 73.4488 307.151 L 74.9959 311.667 L 76.1521 315.007 L 78.3794 321.397 L 81.1526 329.346"/><path d = "M 100.504 321.956 L 102.247 321.036 L 103.999 320.129 L 105.757 319.233 L 107.519 318.347 L 111.054 316.599 L 114.256 315.045 L 117.252 313.617 L 120.261 312.215 L 121.772 311.526 L 123.286 310.847 L 125.688 309.797 L 127.975 308.833 L 129.124 308.363 L 130.277 307.901 L 132.015 307.227 L 133.762 306.575 L 135.52 305.946 L 137.287 305.344 L 139.3 304.693 L 141.324 304.077 L 143.359 303.496 L 145.311 302.974 L 147.269 302.484 L 149.235 302.023 L 151.207 301.589 L 153.185 301.181 L 155.168 300.795 L 156.658 300.517 L 158.152 300.249"/><path d = "M 560.76 215.811 L 560.886 215.975 L 561.527 216.813 L 562.511 218.122 L 563.221 219.065"/><path d = "M 536.156 220.172 L 538.104 219.814 L 542.367 219.054 L 554.752 216.869 L 559.557 216.025 L 560.761 215.812"/><path d = "M 536.156 220.172 L 536.262 220.298 L 536.491 220.582 L 537.158 221.453 L 537.685 222.164 L 538.616 223.425"/><path d = "M 158.147 300.196 L 156.247 300.514 L 154.342 300.799 L 152.433 301.055 L 150.521 301.285 L 149.037 301.448 L 147.552 301.598 L 146.077 301.737 L 144.602 301.865 L 141.657 302.094 L 138.722 302.288 L 135.802 302.447 L 133.618 302.543 L 131.449 302.615 L 129.292 302.661 L 127.105 302.677 L 124.936 302.659 L 123.86 302.636 L 122.789 302.602 L 121.194 302.531 L 119.614 302.434 L 118.05 302.309 L 116.504 302.154 L 115.089 301.983 L 113.692 301.785 L 112.315 301.557 L 110.96 301.299 L 109.627 301.011 L 108.32 300.692 L 107.087 300.354 L 105.881 299.986 L 104.703 299.587 L 104.126 299.377 L 103.556 299.158 L 102.7 298.81 L 101.863 298.443 L 101.046 298.059 L 100.457 297.764"/><path d = "M 158.228 298.622 L 157.069 298.82 L 155.909 299.005 L 154.707 299.183 L 153.308 299.37 L 151.912 299.539 L 150.094 299.729 L 148.328 299.883 L 146.868 299.988 L 145.414 300.072 L 144.608 300.11 L 143.122 300.164 L 141.642 300.198 L 139.874 300.212 L 138.21 300.199 L 136.556 300.162 L 134.912 300.101 L 133.276 300.016 L 131.617 299.905 L 129.969 299.77 L 128.879 299.668 L 126.968 299.462 L 125.921 299.335 L 123.991 299.073 L 123.213 298.958 L 121.564 298.693 L 120.167 298.448 L 118.783 298.184 L 116.995 297.814 L 115.995 297.591 L 115.004 297.358 L 113.67 297.026 L 112.357 296.677 L 111.064 296.311 L 109.521 295.843 L 108.009 295.348 L 107.113 295.037 L 106.227 294.715 L 105.042 294.261 L 104.193 293.919 L 103.492 293.624 L 102.803 293.324 L 101.907 292.915 L 100.946 292.453 L 100.004 291.975"/><path d = "M 541.583 187.062 L 544.752 191.944 L 547.583 196.293 L 548.999 198.457 L 551.123 201.676 L 553.034 204.543 L 555.539 208.253 L 558.057 211.929 L 560.59 215.569 L 560.761 215.813"/><path d = "M 83.7422 328.554 L 83.9473 322.883 L 84.127 317.14 L 84.2781 311.323 L 84.398 305.432"/><path d = "M 86.4361 293.412 L 86.1136 294.364 L 85.8177 295.318 L 85.5493 296.273 L 85.3098 297.225 L 85.1236 298.058 L 84.96 298.887 L 84.8196 299.709 L 84.7036 300.512 L 84.6092 301.307 L 84.5357 302.091 L 84.4937 302.666 L 84.4612 303.235 L 84.4197 304.361 L 84.398 305.432"/><path d = "M 541.58203 187.06091 A 1247.1873 1247.1873 0 0 0 531.33862 171.56293"/><path d = "M 506.736 175.921 L 507.261 175.84 L 507.967 175.721 L 509.991 175.37 L 512.794 174.877 L 519.47 173.689 L 531.338 171.563"/><path d = "M 516.97791 191.42004 A 1248.7078 1248.7078 0 0 0 506.73596 175.9212"/><path d = "M 87.4072 290.946 L 87.5789 290.557 L 87.7989 290.05 L 87.9011 289.801 L 88.0398 289.431 L 88.1531 289.072 L 88.2398 288.715 L 88.2976 288.359 L 88.3274 288.002 L 88.3321 287.648 L 88.3172 287.295"/><path d = "M 88.1619 285.948 L 88.243 286.55 L 88.2778 286.849 L 88.3172 287.295"/><path d = "M 506.736 175.921 L 487.724 178.424"/><path d = "M 81.4253 214.359 L 77.8819 213.233 L 75.3128 212.422 L 72.1609 211.447 L 70.7683 211.029 L 69.3936 210.626 L 67.2408 210.021"/><path d = "M 88.1619 285.948 L 87.7451 283.074 L 87.2959 280.202 L 86.8138 277.337 L 86.2991 274.484 L 85.7527 271.649 L 85.1761 268.835 L 84.5713 266.047 L 84.0618 263.808 L 83.6758 262.17 L 83.282 260.544 L 82.6839 258.151 L 82.0711 255.786 L 81.4461 253.451 L 80.9702 251.718 L 80.4893 250.002 L 79.9134 247.99 L 79.3323 246 L 78.6919 243.85 L 78.0476 241.725 L 76.8076 237.729 L 76.0552 235.353 L 75.3013 233.003 L 73.8006 228.397 L 72.0481 223.117 L 71.4185 221.239 L 70.679 219.072 L 70.3811 218.222 L 69.5662 215.967 L 68.9636 214.363 L 68.1201 212.195 L 67.2408 210.021"/><path d = "M 487.724 178.424 L 487.518 178.508 L 487.292 178.563"/><path d = "M 497.452 193.404 L 493.692 187.867 L 490.874 183.753 L 488.049 179.658"/><path d = "M 497.935 194.118 L 497.452 193.404"/><path d = "M 487.292 178.563 L 487.268 178.567"/><path d = "M 488.029 179.668 L 487.268 178.567"/><path d = "M 497.434 193.413 L 493.673 187.877 L 490.854 183.763 L 488.029 179.668"/><path d = "M 497.917 194.128 L 497.434 193.413"/><path d = "M 522.862 229.803 L 520.37 226.409 L 517.867 222.964 L 515.369 219.483 L 512.884 215.977 L 511.007 213.3 L 509.138 210.61 L 507.274 207.905 L 505.414 205.185 L 503.755 202.743 L 500.447 197.845 L 497.935 194.119"/><path d = "M 487.268 178.567 L 487.133 178.564 L 486.998 178.546 L 486.865 178.516 L 486.672 178.457 L 486.484 178.388 L 486.305 178.312"/><path d = "M 487.366 179.861 L 486.305 178.312"/><path d = "M 496.698 193.589 L 492.966 188.066 L 490.163 183.947 L 487.366 179.861"/><path d = "M 497.178 194.301 L 496.698 193.589"/><path d = "M 522.852 229.811 L 520.359 226.417 L 517.855 222.973 L 515.356 219.491 L 512.87 215.986 L 510.368 212.414 L 507.879 208.818 L 505.398 205.194 L 503.738 202.752 L 500.429 197.854 L 497.917 194.128"/><path d = "M 523.581 230.269 L 523.462 230.232 L 523.348 230.186 L 523.206 230.111 L 523.077 230.022 L 522.964 229.922 L 522.862 229.803"/><path d = "M 486.284 178.303 L 486.305 178.312"/><path d = "M 487.352 179.861 L 486.284 178.303"/><path d = "M 496.68 193.588 L 492.95 188.066 L 490.147 183.947 L 487.352 179.861"/><path d = "M 497.158 194.301 L 496.68 193.588"/><path d = "M 521.703 229.795 L 520.476 228.107 L 519.252 226.411 L 516.804 222.986 L 514.352 219.517 L 511.908 216.02 L 509.46 212.48 L 507.008 208.898 L 504.563 205.294 L 502.113 201.658 L 497.82 195.258 L 497.178 194.301"/><path d = "M 522.852 229.811 L 522.805 229.837 L 522.684 229.87 L 522.569 229.885 L 522.448 229.889 L 522.191 229.876 L 521.999 229.853 L 521.703 229.795"/><path d = "M 523.576 230.281 L 523.456 230.244 L 523.341 230.197 L 523.198 230.122 L 523.068 230.033 L 522.954 229.931 L 522.852 229.811"/><path d = "M 524.347 230.298 L 524.093 230.325 L 523.834 230.316 L 523.706 230.297 L 523.581 230.269"/><path d = "M 485.046 178.4 L 485.208 178.33 L 485.376 178.28 L 485.549 178.249 L 485.68 178.237 L 485.875 178.238 L 486.064 178.258 L 486.284 178.303"/><path d = "M 486.26672 180.16846 A 1481.2576 1481.2576 0 0 0 485.04614 178.39978"/><path d = "M 495.62231 193.90381 A 1583.0428 1583.0428 0 0 0 486.26685 180.16858"/><path d = "M 496.103 194.617 L 495.623 193.904"/><path d = "M 523.057 230.648 L 522.775 230.559 L 522.506 230.442 L 522.253 230.297 L 522.022 230.126 L 521.853 229.969 L 521.703 229.795"/><path d = "M 524.18024 230.33327 A 1.8422852 1.8422852 0 0 0 524.34967 230.31097"/><path d = "M 523.57617 230.28133 A 1.7631836 1.7631836 0 0 0 524.1803 230.33311"/><path d = "M 525.419 230.106 L 525.703 230.012 L 525.98 229.902 L 526.383 229.711 L 526.764 229.489"/><path d = "M 524.347 230.298 L 525.419 230.106"/><path d = "M 150.031 222.573 L 317.543 200.474 L 485.046 178.4"/><path d = "M 146.255 223.072 L 150.031 222.573"/><path d = "M 523.039 230.656 L 522.753 230.565 L 522.48 230.447 L 522.224 230.3 L 521.99 230.126 L 521.819 229.967 L 521.667 229.791"/><path d = "M 521.667 229.791 L 521.703 229.795"/><path d = "M 524.229 230.735 L 524.227 230.687 L 524.218 230.613 L 524.181 230.334 L 524.18 230.333"/><path d = "M 523.05658 230.6485 A 3.2849121 3.2849121 0 0 0 524.22955 230.73477"/><path d = "M 524.18085 230.33324 A 5.0200195 5.0200195 0 0 0 524.35071 230.31491"/><path d = "M 524.35 230.311 L 525.24 230.152"/><path d = "M 525.23993 230.15155 A 3.784668 3.784668 0 0 0 525.4187 230.10548"/><path d = "M 522.637 231.318 L 522.284 231.206 L 521.95 231.065 L 521.639 230.896 L 521.356 230.702 L 521.14 230.52 L 520.947 230.324 L 520.778 230.117"/><path d = "M 520.778 230.117 L 520.841 230.008 L 520.882 229.953 L 520.929 229.906 L 520.982 229.867 L 521.043 229.836 L 521.133 229.807 L 521.273 229.783 L 521.419 229.776 L 521.667 229.791"/><path d = "M 83.730171 332.10956 A 14.027832 14.027832 0 0 0 83.749031 332.32367"/><path d = "M 524.296 231.441 L 523.881 231.467 L 523.462 231.456 L 523.046 231.407 L 522.84 231.367 L 522.637 231.318"/><path d = "M 524.23 230.744 L 523.929 230.762 L 523.629 230.754 L 523.331 230.718 L 523.039 230.656"/><path d = "M 524.296 231.441 L 524.238 230.872 L 524.231 230.779 L 524.229 230.744"/><path d = "M 524.229 230.735 L 524.229 230.744"/><path d = "M 520.778 230.117 L 518.313 226.736 L 515.839 223.304 L 513.374 219.843 L 510.916 216.353 L 508.447 212.808 L 505.987 209.236 L 503.518 205.617 L 501.876 203.193 L 498.597 198.327 L 496.103 194.617"/><path d = "M 521.667 229.791 L 520.441 228.102 L 519.218 226.406 L 516.772 222.982 L 514.322 219.513 L 511.879 216.017 L 509.433 212.477 L 506.983 208.896 L 504.539 205.292 L 502.091 201.656 L 497.801 195.258 L 497.158 194.301"/><path d = "M 86.4361 293.412 L 86.6358 292.86 L 86.8455 292.306 L 87.0652 291.755 L 87.398 290.967"/><path d = "M 87.4072 290.946 L 87.398 290.967"/><path d = "M 83.7422 328.554 L 83.7107 329.362"/><path d = "M 83.73 332.11 L 83.7034 331.714 L 83.6865 331.313 L 83.678 330.765 L 83.6834 330.209 L 83.7107 329.362"/><path d = "M 84.8816 331.516 L 86.6719 330.241 L 87.6651 329.546 L 88.0655 329.272 L 88.8738 328.734"/><path d = "M 88.8738 328.734 L 89.9475 328.051 L 90.669 327.611 L 91.3943 327.178 L 92.4812 326.532"/><path d = "M 92.481308 326.53204 A 317.88696 317.88696 0 0 0 93.688736 325.80627"/><path d = "M 146.255 223.072 L 144.366 223.319 L 142.957 223.495 L 141.516 223.661 L 140.044 223.814 L 138.922 223.918 L 137.786 224.011 L 136.386 224.107 L 134.968 224.184 L 133.536 224.24 L 131.678 224.279 L 129.803 224.281 L 127.91 224.244 L 126.005 224.169 L 124.091 224.056 L 122.169 223.904 L 120.961 223.79 L 119.752 223.662 L 117.833 223.431 L 115.92 223.167 L 114.016 222.872 L 112.119 222.548 L 110.769 222.3 L 109.053 221.965 L 107.343 221.609 L 105.186 221.131 L 104.456 220.962 L 102.385 220.465 L 100.319 219.944 L 98.2588 219.401 L 96.7198 218.981 L 95.1875 218.552 L 92.8863 217.889 L 90.6805 217.235 L 87.5406 216.279 L 85.4839 215.639 L 81.4575 214.369"/><path d = "M 81.4253 214.359 L 81.4575 214.369"/><path d = "M 526.764 229.489 L 526.999 229.332 L 527.225 229.166 L 527.455 228.98 L 527.676 228.786 L 527.906 228.566 L 528.127 228.338 L 528.358 228.08 L 528.58 227.816 L 528.82 227.511 L 529.051 227.2 L 529.313 226.829 L 529.774 226.136 L 530.181 225.498 L 530.531 224.944 L 530.886 224.392 L 531.204 223.914 L 531.533 223.443 L 531.879 222.981 L 532.242 222.536 L 532.631 222.109 L 532.836 221.904 L 533.05 221.705 L 533.385 221.422 L 533.74 221.159 L 534.117 220.918 L 534.476 220.722 L 534.836 220.557 L 535.211 220.415 L 535.64 220.286 L 536.063 220.19 L 536.156 220.171"/><path d = "M 524.229 230.744 L 524.707 230.686 L 525.221 230.591 L 525.71 230.472 L 526.217 230.318 L 526.688 230.149 L 527.153 229.957 L 527.611 229.743 L 528.014 229.535 L 528.351 229.348 L 528.688 229.15 L 529.022 228.942 L 529.366 228.718 L 530.018 228.267 L 530.881 227.633 L 532.093 226.71 L 532.768 226.204 L 533.323 225.805 L 533.694 225.549 L 534.085 225.291 L 534.729 224.896 L 535.53 224.463 L 536.066 224.211 L 536.614 223.986 L 537.017 223.841 L 537.38 223.724 L 537.749 223.619 L 538.117 223.528 L 538.616 223.425"/><path d = "M 82.9968 333.225 L 83.1629 333.393 L 83.3282 333.539 L 83.4824 333.649 L 83.5852 333.701 L 83.6734 333.72 L 83.7317 333.709 L 83.7778 333.675 L 83.8069 333.627 L 83.8269 333.561 L 83.8413 333.445 L 83.8423 333.3 L 83.8225 333.015 L 83.7871 332.683 L 83.7488 332.324"/><path d = "M 524.296 231.44 L 525.181 231.33 L 526.06 231.191 L 526.933 231.023 L 527.8 230.83 L 528.662 230.612 L 529.518 230.374 L 530.157 230.184 L 530.794 229.985 L 531.901 229.623 L 533.004 229.248 L 534.107 228.871 L 535.399 228.437 L 536.047 228.227 L 537.022 227.926 L 537.702 227.728 L 538.385 227.541 L 538.998 227.384 L 539.612 227.239 L 540.573 227.034 L 541.248 226.909"/><path d = "M 524.94 235.278 L 158.152 300.249"/><path d = "M 544.137 232.238 L 568.742 227.878"/><path d = "M 84.349609 333.28265 A 159.45679 159.45679 0 0 0 83.753113 333.69772"/><path d = "M 84.3494 333.283 L 86.2691 331.971 L 87.8208 330.936 L 89.3936 329.917 L 90.9973 328.916 L 92.6304 327.935 L 93.8609 327.21"/><path d = "M 100.36806 323.58252 A 163.72388 163.72388 0 0 0 93.860886 327.20972"/><path d = "M 524.757 235.671 L 158.223 300.598"/><path d = "M 544.137 232.238 L 524.757 235.671"/></g><g fill = "none" stroke = "rgb(0, 0, 0)" stroke-width = "0.1" stroke-linecap = "butt" stroke-linejoin = "miter"><path d = "M 117.066 107.888 L 118.566 106.388"/><path d = "M 117.066 106.388 L 118.566 107.888"/></g><g fill = "none" stroke = "rgb(0, 0, 0)" stroke-width = "0.1" stroke-linecap = "butt" stroke-linejoin = "miter"><path d = "M 138.553 275.484 L 140.053 273.984"/><path d = "M 138.553 273.984 L 140.053 275.484"/></g></svg>
